<svg id="svg" version="1.1" width="500" height="500" xmlns="http://www.w3.org/2000/svg" xmlns:xlink="http://www.w3.org/1999/xlink" style="display: block;"><g id="svgg"><path id="path0" d="M226.351 122.711 C 218.148 124.880,210.144 133.722,214.347 135.972 C 216.461 137.103,216.171 137.226,220.864 133.219 C 228.479 126.719,233.784 126.824,240.406 133.607 C 243.628 136.906,245.383 137.497,247.040 135.840 C 252.102 130.778,235.554 120.278,226.351 122.711 M150.167 127.176 C 142.523 132.023,139.775 136.803,143.624 138.556 C 145.441 139.384,145.951 139.191,148.624 136.659 C 156.697 129.010,163.427 129.261,170.724 137.483 C 173.562 140.681,178.039 138.209,176.070 134.531 C 171.377 125.762,158.266 122.039,150.167 127.176 M79.200 257.401 C 79.200 257.739,79.920 258.465,80.800 259.014 C 81.680 259.564,82.400 259.737,82.400 259.399 C 82.400 259.061,81.680 258.335,80.800 257.786 C 79.920 257.236,79.200 257.063,79.200 257.401 M255.200 330.400 C 255.200 331.280,254.780 332.000,254.267 332.000 C 253.753 332.000,253.565 332.231,253.847 332.514 C 254.561 333.227,256.800 331.246,256.800 329.902 C 256.800 329.296,256.440 328.800,256.000 328.800 C 255.560 328.800,255.200 329.520,255.200 330.400 M168.200 346.951 C 168.970 347.153,170.230 347.153,171.000 346.951 C 171.770 346.750,171.140 346.586,169.600 346.586 C 168.060 346.586,167.430 346.750,168.200 346.951 " stroke="none" fill="#000000" fill-rule="evenodd"></path><path id="path1" d="M391.102 1.759 C 392.049 4.319,393.600 4.510,393.600 2.067 C 393.600 0.545,393.185 -0.000,392.026 -0.000 C 390.740 -0.000,390.571 0.323,391.102 1.759 M199.889 38.408 C 200.927 39.284,202.097 40.000,202.489 40.000 C 203.856 40.000,203.179 39.307,200.600 38.067 L 198.000 36.817 199.889 38.408 M154.463 51.524 C 153.870 52.239,153.630 54.933,153.804 58.924 L 154.078 65.200 154.239 58.760 C 154.332 55.029,154.804 51.916,155.360 51.360 C 155.888 50.832,156.112 50.400,155.858 50.400 C 155.604 50.400,154.976 50.906,154.463 51.524 M209.600 51.842 C 209.600 52.314,210.492 52.532,211.600 52.331 C 213.015 52.075,213.600 52.324,213.600 53.184 C 213.600 53.973,214.362 54.400,215.771 54.400 C 217.723 54.400,217.818 54.276,216.716 53.173 C 215.211 51.668,209.600 50.619,209.600 51.842 M218.277 64.000 C 218.125 66.201,218.270 68.001,218.600 68.000 C 218.930 68.000,219.200 66.200,219.200 64.000 C 219.200 58.839,218.635 58.839,218.277 64.000 M231.212 71.640 C 231.194 72.919,232.954 74.400,234.493 74.400 C 235.249 74.400,236.048 74.850,236.270 75.400 C 236.588 76.188,236.687 76.185,236.737 75.383 C 236.772 74.823,235.810 73.931,234.600 73.399 C 233.390 72.868,232.136 72.065,231.812 71.616 C 231.417 71.067,231.220 71.075,231.212 71.640 M158.600 72.575 C 157.226 73.068,157.337 74.400,158.753 74.400 C 160.078 74.400,161.127 73.081,160.213 72.563 C 159.876 72.372,159.150 72.377,158.600 72.575 M144.800 80.498 C 144.800 81.561,145.017 81.616,146.000 80.800 C 146.660 80.252,147.200 79.668,147.200 79.502 C 147.200 79.336,146.660 79.200,146.000 79.200 C 145.340 79.200,144.800 79.784,144.800 80.498 M119.306 102.097 C 118.501 103.007,118.448 103.568,119.106 104.226 C 119.598 104.718,120.045 104.868,120.100 104.560 C 120.155 104.252,120.251 103.730,120.312 103.400 C 120.374 103.070,120.710 102.350,121.059 101.800 C 121.957 100.386,120.620 100.613,119.306 102.097 M287.386 123.200 C 287.935 124.080,288.661 124.800,288.999 124.800 C 289.337 124.800,289.164 124.080,288.614 123.200 C 288.065 122.320,287.339 121.600,287.001 121.600 C 286.663 121.600,286.836 122.320,287.386 123.200 M89.851 159.400 C 88.350 161.736,87.200 164.253,87.200 165.206 C 87.200 166.739,85.182 167.213,83.492 166.076 C 82.312 165.283,79.157 165.023,76.915 165.535 C 76.290 165.678,81.758 170.135,85.158 172.255 C 89.937 175.234,91.376 173.423,91.400 164.400 C 91.413 159.412,90.903 157.765,89.851 159.400 M318.000 166.164 C 316.336 167.065,315.956 167.583,316.760 167.852 C 317.398 168.065,318.058 167.826,318.227 167.320 C 318.395 166.814,319.043 166.400,319.667 166.400 C 320.290 166.400,320.800 166.040,320.800 165.600 C 320.800 164.612,320.903 164.592,318.000 166.164 M311.516 169.640 C 310.614 170.542,308.824 171.392,307.538 171.529 C 305.468 171.750,303.989 173.687,306.000 173.543 C 307.515 173.434,312.000 171.017,312.000 170.309 C 312.000 169.919,312.540 169.600,313.200 169.600 C 313.860 169.600,314.400 169.240,314.400 168.800 C 314.400 167.538,313.296 167.859,311.516 169.640 M48.223 174.000 C 48.432 175.886,49.747 177.585,50.600 177.069 C 51.952 176.250,51.080 179.319,49.600 180.586 C 48.720 181.339,48.000 182.581,48.000 183.345 C 48.000 184.287,46.730 185.185,44.056 186.135 C 41.887 186.905,40.300 187.837,40.528 188.207 C 40.756 188.576,41.412 188.488,41.986 188.012 C 42.559 187.536,44.957 187.027,47.314 186.882 C 49.671 186.737,53.760 186.164,56.400 185.609 C 59.040 185.054,63.166 184.375,65.569 184.100 L 69.939 183.600 64.369 181.700 C 57.956 179.512,50.268 175.599,50.981 174.886 C 51.248 174.619,50.897 174.400,50.200 174.400 C 49.503 174.400,48.734 173.950,48.490 173.400 C 48.246 172.850,48.126 173.120,48.223 174.000 M38.400 199.119 C 38.400 200.774,43.704 204.000,46.425 204.000 C 48.477 204.000,48.460 205.293,46.400 205.832 C 45.126 206.165,44.800 206.923,44.800 209.550 C 44.800 214.407,46.298 214.274,51.657 208.940 C 55.376 205.237,57.398 203.911,61.025 202.792 C 68.247 200.564,67.285 199.977,56.633 200.108 C 48.865 200.203,46.223 199.949,44.222 198.915 C 40.757 197.123,38.400 197.206,38.400 199.119 M214.400 203.429 L 212.400 205.200 212.800 234.000 L 213.200 262.800 259.418 262.982 C 289.042 263.098,306.185 263.457,307.165 263.982 C 309.678 265.326,310.102 264.998,311.889 260.329 C 313.895 255.087,314.007 254.337,312.471 256.438 C 311.850 257.288,311.546 258.312,311.795 258.715 C 312.044 259.118,311.831 259.190,311.323 258.876 C 310.814 258.561,296.808 258.236,280.199 258.152 L 250.000 258.000 250.032 255.800 C 250.070 253.133,250.131 253.137,246.055 255.526 C 243.090 257.263,241.754 257.467,232.384 257.606 C 218.857 257.808,219.745 257.957,220.201 255.572 C 220.475 254.141,220.148 253.308,219.094 252.744 C 217.684 251.989,217.600 250.532,217.600 226.772 C 217.600 212.927,217.330 201.613,217.000 201.629 C 216.670 201.645,215.500 202.455,214.400 203.429 M346.600 202.973 C 347.810 203.156,349.790 203.156,351.000 202.973 C 352.210 202.790,351.220 202.640,348.800 202.640 C 346.380 202.640,345.390 202.790,346.600 202.973 M173.600 226.913 C 173.626 239.171,173.636 249.830,173.623 250.600 C 173.607 251.564,172.960 252.000,171.543 252.000 C 169.673 252.000,169.600 252.114,170.743 253.257 C 172.245 254.759,172.408 257.567,171.000 257.681 C 161.750 258.427,148.945 257.324,146.217 255.545 C 142.428 253.074,141.930 253.104,141.968 255.800 L 142.000 258.000 113.355 258.188 C 83.315 258.385,82.400 258.495,82.400 261.919 C 82.400 263.287,176.099 263.895,178.211 262.541 C 179.000 262.035,179.175 255.937,179.011 234.791 L 178.800 207.689 176.177 206.157 L 173.554 204.626 173.600 226.913 M72.000 208.713 C 72.000 209.137,73.135 210.049,74.523 210.741 C 77.607 212.280,78.031 212.317,76.641 210.926 C 74.983 209.268,72.000 207.846,72.000 208.713 M315.647 210.825 C 314.776 211.485,314.537 212.000,315.104 212.000 C 315.660 212.000,316.654 211.460,317.314 210.800 C 318.848 209.266,317.685 209.284,315.647 210.825 M79.647 213.975 C 80.501 214.621,81.620 215.161,82.133 215.175 C 82.647 215.189,83.205 215.614,83.373 216.120 C 83.542 216.626,84.189 216.870,84.811 216.663 C 85.530 216.423,85.004 215.870,83.371 215.148 C 81.957 214.522,80.800 213.737,80.800 213.405 C 80.800 213.072,80.191 212.800,79.447 212.800 C 78.267 212.800,78.293 212.950,79.647 213.975 M311.200 213.600 C 311.200 214.040,310.570 214.428,309.800 214.463 C 308.998 214.499,308.819 214.696,309.379 214.923 C 309.918 215.141,311.168 214.753,312.157 214.060 C 313.627 213.030,313.704 212.800,312.578 212.800 C 311.820 212.800,311.200 213.160,311.200 213.600 M324.000 217.224 C 324.000 217.414,325.202 219.466,326.672 221.784 C 333.049 231.847,331.557 237.041,322.691 235.639 C 320.991 235.370,319.480 234.801,319.333 234.375 C 318.662 232.425,317.600 233.911,317.600 236.800 C 317.600 238.560,317.960 240.000,318.400 240.000 C 318.840 240.000,319.157 239.730,319.105 239.400 C 318.642 236.467,321.371 235.769,323.014 238.400 C 325.163 241.841,333.600 238.966,333.600 234.793 C 333.600 233.749,333.960 232.672,334.400 232.400 C 335.521 231.707,335.401 226.121,334.240 224.960 C 333.584 224.304,333.560 224.000,334.165 224.000 C 334.656 224.000,334.864 223.288,334.632 222.400 C 334.402 221.520,333.595 220.800,332.840 220.800 C 332.085 220.800,331.231 220.564,330.943 220.276 C 330.199 219.532,324.000 216.807,324.000 217.224 M86.400 218.183 C 87.060 218.434,87.780 218.883,88.000 219.180 C 88.876 220.362,95.216 223.450,95.724 222.942 C 96.023 222.644,95.832 222.400,95.300 222.400 C 94.768 222.400,93.560 221.680,92.616 220.800 C 91.671 219.920,90.426 219.200,89.849 219.200 C 89.272 219.200,88.800 218.840,88.800 218.400 C 88.800 217.960,87.990 217.628,87.000 217.663 C 85.797 217.705,85.598 217.878,86.400 218.183 M301.623 219.639 C 300.082 220.727,299.391 221.600,300.072 221.600 C 300.746 221.600,302.013 220.935,302.886 220.121 C 303.759 219.308,304.997 218.436,305.636 218.184 C 306.631 217.793,306.625 217.723,305.600 217.702 C 304.940 217.689,303.150 218.561,301.623 219.639 M61.810 221.106 C 55.779 222.871,54.136 224.443,56.509 226.179 C 58.170 227.393,62.101 227.532,62.800 226.400 C 63.072 225.960,64.083 225.628,65.047 225.663 C 66.011 225.698,66.350 225.908,65.800 226.130 C 64.765 226.548,64.430 228.964,65.289 229.822 C 66.397 230.930,71.200 223.642,71.200 220.853 C 71.200 218.780,69.615 218.823,61.810 221.106 M272.000 219.805 C 272.000 220.137,270.843 220.922,269.429 221.548 C 268.014 222.174,267.278 222.826,267.791 222.997 C 268.305 223.168,270.086 222.384,271.748 221.254 C 273.688 219.936,274.275 219.200,273.386 219.200 C 272.624 219.200,272.000 219.472,272.000 219.805 M337.600 223.247 C 337.600 223.713,337.956 223.874,338.391 223.606 C 338.844 223.325,338.978 223.647,338.705 224.358 C 338.338 225.316,338.797 225.600,340.714 225.600 C 342.081 225.600,343.200 225.240,343.200 224.800 C 343.200 224.360,342.660 224.000,342.000 224.000 C 341.340 224.000,340.800 223.640,340.800 223.200 C 340.800 222.760,340.080 222.400,339.200 222.400 C 338.320 222.400,337.600 222.781,337.600 223.247 M98.572 226.000 C 100.191 227.100,101.729 228.000,101.990 228.000 C 102.440 228.000,107.146 231.138,108.000 232.007 C 108.220 232.231,110.740 233.833,113.600 235.568 C 116.460 237.302,119.293 239.206,119.895 239.798 C 120.498 240.391,121.188 240.679,121.429 240.438 C 121.670 240.197,121.717 239.873,121.533 239.718 C 120.260 238.643,102.206 227.196,101.760 227.182 C 101.452 227.172,100.300 226.460,99.200 225.600 C 98.100 224.740,96.846 224.028,96.414 224.018 C 95.982 224.008,96.953 224.900,98.572 226.000 M291.886 225.825 C 290.723 226.801,287.940 228.680,285.701 230.000 C 283.462 231.320,281.623 232.711,281.615 233.092 C 281.607 233.473,282.590 233.143,283.800 232.358 C 292.511 226.714,296.216 224.004,295.191 224.025 C 294.536 224.039,293.049 224.849,291.886 225.825 M258.000 228.871 C 255.360 230.602,252.660 232.383,252.000 232.829 C 245.558 237.184,243.809 238.504,245.002 238.111 C 245.773 237.857,249.655 235.478,253.628 232.824 C 257.601 230.171,261.046 228.000,261.283 228.000 C 261.520 228.000,262.254 227.460,262.914 226.800 C 264.947 224.767,263.024 225.578,258.000 228.871 M138.155 231.712 C 137.415 232.452,138.306 233.600,139.622 233.600 C 140.296 233.600,140.564 233.117,140.289 232.400 C 139.801 231.128,138.998 230.869,138.155 231.712 M66.400 234.117 C 66.400 236.696,68.304 239.987,69.800 239.994 C 70.570 239.997,71.200 240.540,71.200 241.200 C 71.200 241.860,71.560 242.400,72.000 242.400 C 72.440 242.400,72.800 242.955,72.800 243.633 C 72.800 244.312,73.555 245.662,74.479 246.633 L 76.157 248.400 75.730 244.800 C 74.822 237.144,74.414 236.203,71.774 235.675 C 70.416 235.403,68.651 234.589,67.852 233.867 C 66.496 232.639,66.400 232.656,66.400 234.117 M276.988 235.761 C 275.155 236.949,273.789 238.055,273.952 238.219 C 274.303 238.570,280.800 234.558,280.800 233.990 C 280.800 233.350,280.468 233.504,276.988 235.761 M145.643 237.442 C 151.390 241.065,151.491 241.118,150.923 240.199 C 150.341 239.258,143.668 235.200,142.701 235.200 C 142.363 235.200,143.687 236.209,145.643 237.442 M267.564 241.628 C 264.944 243.370,263.275 244.796,263.856 244.797 C 264.669 244.799,270.412 241.353,272.733 239.470 C 275.002 237.630,271.173 239.228,267.564 241.628 M238.000 241.744 C 235.800 243.076,233.880 244.489,233.733 244.883 C 233.587 245.277,232.867 245.628,232.133 245.663 C 231.384 245.699,231.216 245.896,231.750 246.113 C 232.273 246.326,235.149 244.858,238.142 242.850 C 244.243 238.757,244.149 238.022,238.000 241.744 M126.179 243.600 C 128.466 245.140,130.801 246.375,131.368 246.344 C 132.071 246.305,132.017 246.114,131.200 245.744 C 130.540 245.445,128.477 244.210,126.616 243.000 C 124.755 241.790,122.959 240.800,122.627 240.800 C 122.294 240.800,123.892 242.060,126.179 243.600 M154.000 242.759 C 155.320 243.877,156.940 244.788,157.600 244.784 C 159.038 244.774,157.979 243.936,154.000 241.934 L 151.600 240.727 154.000 242.759 M162.686 248.400 C 163.346 249.060,164.340 249.600,164.896 249.600 C 165.463 249.600,165.224 249.085,164.353 248.425 C 162.315 246.884,161.152 246.866,162.686 248.400 M228.800 247.805 C 228.800 248.137,227.643 248.922,226.229 249.548 C 224.596 250.270,224.070 250.823,224.789 251.063 C 225.411 251.270,226.058 251.026,226.227 250.520 C 226.395 250.014,226.953 249.589,227.467 249.575 C 229.134 249.529,231.769 247.200,230.153 247.200 C 229.409 247.200,228.800 247.472,228.800 247.805 M76.425 249.835 C 76.083 250.623,76.027 251.493,76.301 251.768 C 77.114 252.580,77.768 251.439,77.395 249.863 C 77.063 248.465,77.020 248.464,76.425 249.835 M135.400 249.351 C 136.170 249.553,136.800 250.051,136.800 250.459 C 136.800 250.866,137.409 251.200,138.153 251.200 C 139.333 251.200,139.307 251.050,137.953 250.025 C 137.099 249.379,135.860 248.881,135.200 248.918 C 134.360 248.965,134.420 249.095,135.400 249.351 M255.200 249.600 C 255.200 250.040,254.570 250.428,253.800 250.463 C 252.998 250.499,252.819 250.696,253.379 250.923 C 253.918 251.141,255.168 250.753,256.157 250.060 C 257.627 249.030,257.704 248.800,256.578 248.800 C 255.820 248.800,255.200 249.160,255.200 249.600 M103.398 297.110 C 100.458 298.059,100.480 298.010,102.143 299.937 C 102.944 300.867,103.780 303.151,104.000 305.014 C 104.333 307.835,104.719 308.445,106.312 308.670 C 107.987 308.907,108.151 308.709,107.642 307.070 C 105.987 301.752,105.205 302.043,122.400 301.579 C 138.402 301.147,140.435 301.448,139.731 304.144 C 139.222 306.089,140.421 305.979,143.477 303.800 C 145.815 302.132,146.851 302.000,157.600 302.000 C 169.115 302.000,169.200 302.013,169.136 303.800 C 169.085 305.258,169.504 305.600,171.336 305.600 C 172.948 305.600,173.608 306.003,173.627 307.000 C 174.161 334.393,173.911 346.385,172.800 346.711 C 172.140 346.904,173.310 347.026,175.400 346.982 L 179.200 346.901 179.200 321.866 L 179.200 296.831 142.398 296.616 C 122.157 296.497,104.607 296.719,103.398 297.110 M213.557 296.827 C 212.710 297.350,212.159 348.801,213.000 348.801 C 213.330 348.800,213.600 348.440,213.600 348.000 C 213.600 347.560,214.590 347.200,215.800 347.200 L 218.000 347.201 218.000 326.200 L 218.000 305.200 220.850 305.278 C 223.251 305.344,223.693 305.091,223.650 303.678 C 223.556 300.535,243.812 300.747,248.953 303.943 L 252.800 306.334 252.800 304.053 C 252.800 301.092,252.359 301.159,269.753 301.449 L 284.706 301.698 285.025 304.249 C 285.217 305.785,285.395 304.994,285.472 302.264 C 285.595 297.892,285.517 297.709,283.333 297.229 C 280.537 296.615,214.516 296.235,213.557 296.827 M161.600 309.838 C 158.113 311.961,156.360 313.600,157.577 313.600 C 158.067 313.600,158.902 313.227,159.434 312.772 C 159.965 312.316,161.640 311.056,163.155 309.972 C 166.509 307.572,165.468 307.482,161.600 309.838 M130.800 310.880 C 129.920 311.556,128.663 312.418,128.007 312.795 C 127.350 313.172,127.006 313.673,127.242 313.908 C 127.477 314.144,129.274 313.273,131.235 311.972 C 133.196 310.671,134.260 309.617,133.600 309.629 C 132.940 309.641,131.680 310.204,130.800 310.880 M231.400 311.007 C 232.610 311.757,233.600 312.647,233.600 312.985 C 233.600 313.323,234.224 313.600,234.986 313.600 C 235.885 313.600,235.337 312.897,233.428 311.600 C 231.809 310.500,230.196 309.610,229.842 309.621 C 229.489 309.633,230.190 310.256,231.400 311.007 M260.972 311.600 C 262.591 312.700,264.142 313.600,264.419 313.600 C 264.696 313.600,263.853 312.700,262.546 311.600 C 261.239 310.500,259.687 309.600,259.099 309.600 C 258.510 309.600,259.353 310.500,260.972 311.600 M153.600 315.200 C 153.600 315.640,153.128 316.000,152.551 316.000 C 151.974 316.000,150.804 316.630,149.951 317.400 C 149.098 318.170,147.376 319.329,146.125 319.975 C 144.874 320.621,144.286 321.295,144.818 321.473 C 145.350 321.650,146.013 321.481,146.293 321.096 C 146.572 320.712,147.790 319.887,149.000 319.264 C 150.210 318.640,151.200 317.830,151.200 317.465 C 151.200 317.099,151.650 316.789,152.200 316.775 C 153.909 316.731,156.612 314.400,154.953 314.400 C 154.209 314.400,153.600 314.760,153.600 315.200 M240.344 317.258 C 241.036 317.951,242.232 318.352,243.001 318.151 C 244.332 317.803,244.332 317.781,243.000 317.693 C 242.230 317.642,241.600 317.240,241.600 316.800 C 241.600 316.360,241.034 316.000,240.343 316.000 C 239.201 316.000,239.201 316.115,240.344 317.258 M245.247 320.375 C 246.101 321.021,247.085 321.561,247.433 321.575 C 247.782 321.589,248.840 322.320,249.784 323.200 C 250.729 324.080,251.884 324.787,252.351 324.771 C 253.530 324.731,248.635 320.809,247.400 320.804 C 246.850 320.802,246.400 320.440,246.400 320.000 C 246.400 319.560,245.791 319.200,245.047 319.200 C 243.867 319.200,243.893 319.350,245.247 320.375 M139.200 324.522 C 137.660 325.646,136.940 326.348,137.600 326.083 C 138.260 325.818,139.430 325.379,140.200 325.107 C 140.970 324.836,141.600 324.322,141.600 323.965 C 141.600 323.609,142.230 323.153,143.000 322.951 C 143.967 322.699,144.029 322.569,143.200 322.532 C 142.540 322.503,140.740 323.398,139.200 324.522 M139.538 336.152 C 140.581 338.663,146.658 342.936,149.457 343.128 C 150.039 343.167,151.054 343.740,151.714 344.400 C 152.540 345.226,154.572 345.600,158.235 345.600 C 164.773 345.600,164.407 345.259,151.090 338.954 C 138.232 332.866,138.165 332.850,139.538 336.152 M192.400 349.550 C 191.302 350.056,193.540 350.305,199.533 350.344 C 204.337 350.375,208.089 350.222,207.871 350.004 C 207.083 349.216,193.959 348.831,192.400 349.550 " stroke="none" fill="#ffffff" fill-rule="evenodd"></path><path id="path2" d="M180.800 163.398 C 180.800 163.972,183.491 167.163,189.735 173.991 C 191.349 175.756,193.459 178.209,194.425 179.441 C 195.391 180.674,196.609 181.574,197.132 181.441 C 198.365 181.128,213.558 164.650,213.581 163.600 C 213.593 163.092,207.611 162.800,197.199 162.800 C 188.179 162.800,180.800 163.069,180.800 163.398 M308.508 207.824 C 299.260 217.428,297.506 219.986,302.131 217.123 C 318.266 207.136,319.115 206.306,318.430 201.183 L 318.000 197.966 308.508 207.824 M72.465 202.919 C 71.694 204.929,76.144 208.433,93.600 219.559 C 102.180 225.027,117.214 234.654,127.010 240.951 C 136.805 247.248,145.888 253.059,147.195 253.865 C 149.093 255.036,151.500 255.368,159.185 255.521 C 169.108 255.719,171.242 254.970,166.677 252.889 C 165.509 252.357,162.719 250.728,160.477 249.268 C 146.284 240.027,141.710 237.272,133.158 232.813 C 127.901 230.073,122.160 227.015,120.400 226.018 C 118.640 225.022,112.340 221.676,106.400 218.583 C 100.460 215.490,90.938 210.403,85.240 207.279 C 74.140 201.194,73.244 200.888,72.465 202.919 M203.200 214.777 C 196.776 220.136,195.462 220.209,188.444 215.600 C 185.429 213.620,182.656 212.000,182.281 212.000 C 181.907 212.000,181.600 223.184,181.600 236.853 C 181.600 252.454,181.292 262.281,180.772 263.253 C 179.968 264.755,178.604 264.800,133.972 264.800 C 88.472 264.800,87.983 264.817,86.335 266.465 C 84.732 268.068,84.630 268.075,83.561 266.665 C 82.527 265.301,82.449 265.296,82.425 266.600 C 82.411 267.370,82.736 268.000,83.147 268.000 C 83.558 268.000,84.008 268.962,84.147 270.138 C 84.286 271.314,84.853 272.425,85.406 272.607 C 86.168 272.857,86.225 272.443,85.641 270.907 C 85.014 269.259,85.088 268.961,86.034 269.324 C 86.675 269.570,87.200 270.284,87.200 270.911 C 87.200 271.537,87.709 272.245,88.331 272.484 C 89.455 272.916,95.200 283.280,95.200 284.878 C 95.200 285.338,95.740 286.254,96.400 286.914 C 97.060 287.574,97.600 288.989,97.600 290.057 C 97.600 291.174,98.069 292.000,98.702 292.000 C 99.308 292.000,100.252 292.540,100.800 293.200 C 101.660 294.236,107.066 294.400,140.441 294.400 C 174.506 294.400,179.235 294.549,180.343 295.657 C 181.431 296.745,181.600 300.194,181.600 321.257 C 181.600 334.646,181.870 345.646,182.200 345.702 C 190.470 347.109,207.530 346.755,209.143 345.143 C 210.229 344.056,210.400 340.657,210.400 320.103 C 210.400 302.672,210.656 296.064,211.360 295.360 C 212.912 293.808,282.669 293.997,283.964 295.557 C 284.697 296.440,285.421 296.524,287.031 295.912 C 288.189 295.472,289.954 295.316,290.951 295.566 C 292.585 295.977,292.719 295.796,292.308 293.742 C 292.017 292.285,292.274 291.040,293.021 290.294 C 293.663 289.651,294.440 288.334,294.747 287.367 C 295.054 286.401,295.776 285.139,296.351 284.563 C 298.680 282.235,306.253 266.404,305.326 265.802 C 304.817 265.471,283.340 265.020,257.600 264.800 L 210.800 264.400 210.589 237.400 C 210.350 206.666,210.901 208.354,203.200 214.777 M266.400 226.931 C 254.144 234.818,229.130 250.763,225.000 253.322 C 221.664 255.388,223.159 255.791,233.240 255.539 L 243.280 255.288 252.850 249.044 C 258.113 245.610,264.819 241.280,267.752 239.423 C 291.593 224.327,290.608 225.288,286.197 221.424 C 281.500 217.309,281.242 217.381,266.400 226.931 M226.581 304.351 C 226.327 304.763,226.633 305.404,227.260 305.774 C 241.695 314.296,254.672 322.911,255.014 324.200 C 255.219 324.970,255.885 325.600,256.493 325.600 C 257.102 325.600,257.600 326.320,257.600 327.200 C 257.600 328.495,258.133 328.800,260.400 328.800 C 262.403 328.800,263.200 328.445,263.200 327.553 C 263.200 326.867,262.840 326.528,262.400 326.800 C 261.185 327.551,261.444 326.442,262.800 325.086 C 263.627 324.259,264.000 324.191,264.000 324.865 C 264.000 325.404,264.720 325.015,265.600 324.000 C 266.480 322.985,267.205 321.760,267.211 321.278 C 267.217 320.795,267.427 319.637,267.677 318.703 C 268.033 317.379,267.697 316.898,266.152 316.510 C 265.063 316.236,260.263 313.400,255.486 310.206 L 246.800 304.400 236.921 304.000 C 231.162 303.767,226.850 303.913,226.581 304.351 M136.800 310.401 C 131.300 313.917,125.630 317.016,124.200 317.286 C 120.866 317.917,120.607 320.765,123.698 322.791 C 124.853 323.547,125.551 323.769,125.251 323.283 C 124.314 321.767,128.448 322.285,129.876 323.863 C 132.016 326.228,131.615 328.278,129.133 327.655 C 127.793 327.318,127.247 327.428,127.580 327.968 C 128.550 329.538,134.400 328.985,134.400 327.324 C 134.400 325.285,135.366 324.547,150.800 314.803 C 169.178 303.200,168.736 303.999,156.771 304.003 L 146.800 304.007 136.800 310.401 " stroke="none" fill="#ee5565" fill-rule="evenodd"></path><path id="path3" d="M217.829 62.800 C 217.835 65.000,217.990 65.805,218.174 64.589 C 218.358 63.373,218.353 61.573,218.163 60.589 C 217.973 59.605,217.823 60.600,217.829 62.800 M186.864 152.527 C 180.579 159.766,178.335 162.886,178.864 163.643 C 181.832 167.890,195.846 183.084,196.843 183.136 C 197.527 183.171,199.327 181.850,200.843 180.200 L 203.600 177.200 200.762 179.800 C 196.867 183.368,197.207 183.548,187.692 172.867 C 178.057 162.050,178.490 162.928,181.400 160.114 C 183.968 157.630,194.002 146.450,195.489 144.416 C 196.676 142.793,195.884 142.143,204.800 152.073 C 208.100 155.748,211.863 159.749,213.163 160.964 L 215.526 163.172 213.163 165.786 L 210.800 168.400 213.400 166.050 C 216.748 163.025,216.813 163.281,211.192 157.416 C 208.548 154.657,204.498 150.171,202.192 147.446 C 196.705 140.962,196.984 140.870,186.864 152.527 M191.200 160.025 C 200.689 160.920,208.961 160.908,208.400 160.000 C 208.102 159.517,203.403 159.251,196.553 159.329 C 186.500 159.444,185.887 159.524,191.200 160.025 M206.770 173.000 L 202.800 177.200 207.000 173.230 C 209.310 171.047,211.200 169.157,211.200 169.030 C 211.200 168.433,210.459 169.097,206.770 173.000 M305.400 208.746 C 298.910 215.762,293.600 221.704,293.600 221.951 C 293.600 223.691,300.901 219.746,314.000 210.930 C 320.412 206.614,320.825 205.980,320.595 200.800 C 320.269 193.437,318.902 194.152,305.400 208.746 M319.383 201.000 C 319.870 205.705,320.010 205.523,311.775 210.910 C 296.275 221.048,296.036 220.813,308.508 207.705 C 319.415 196.241,318.923 196.544,319.383 201.000 M71.209 200.784 C 70.743 201.655,70.596 203.302,70.883 204.445 C 71.447 206.694,70.845 206.269,99.200 224.434 C 108.660 230.494,123.780 240.231,132.800 246.071 L 149.200 256.690 159.200 256.809 C 164.700 256.874,169.650 256.898,170.200 256.863 C 171.843 256.759,171.333 254.517,169.400 253.349 C 168.410 252.750,161.541 248.389,154.135 243.657 C 146.730 238.925,139.170 234.343,137.335 233.474 C 135.501 232.606,131.840 230.628,129.200 229.079 C 124.098 226.086,117.454 222.449,106.400 216.600 C 102.660 214.621,93.906 209.897,86.947 206.101 C 73.309 198.663,72.491 198.387,71.209 200.784 M85.240 207.300 C 90.938 210.435,102.980 216.779,112.000 221.399 C 121.020 226.018,128.580 230.023,128.800 230.299 C 129.020 230.574,132.194 232.344,135.854 234.230 C 141.793 237.292,146.477 240.153,160.477 249.268 C 162.719 250.728,165.509 252.357,166.677 252.889 C 171.242 254.970,169.108 255.719,159.185 255.521 C 151.500 255.368,149.093 255.036,147.195 253.865 C 145.888 253.059,136.805 247.248,127.010 240.951 C 117.214 234.654,102.180 225.010,93.600 219.520 C 75.446 207.904,72.000 205.295,72.000 203.162 C 72.000 200.567,74.321 201.292,85.240 207.300 M203.902 212.096 C 195.725 218.659,194.486 218.594,184.892 211.092 C 179.936 207.216,180.000 206.891,180.000 235.902 C 180.000 257.209,179.792 262.377,178.903 263.115 C 178.103 263.778,164.867 263.967,130.103 263.813 C 103.866 263.696,82.400 263.714,82.400 263.853 C 82.400 264.132,84.085 267.443,84.442 267.867 C 84.565 268.013,85.417 267.383,86.333 266.467 C 87.984 264.816,88.454 264.800,133.972 264.800 C 178.604 264.800,179.968 264.755,180.772 263.253 C 181.292 262.281,181.600 252.469,181.600 236.900 C 181.600 212.234,181.850 209.965,184.303 212.417 C 191.700 219.814,196.217 220.386,203.131 214.800 C 206.126 212.380,208.982 210.400,209.478 210.400 C 210.124 210.400,210.438 218.042,210.589 237.400 L 210.800 264.400 257.600 264.800 C 283.340 265.020,304.817 265.471,305.326 265.802 C 306.253 266.404,298.680 282.235,296.351 284.563 C 295.776 285.139,295.054 286.401,294.747 287.367 C 294.440 288.334,293.696 289.618,293.094 290.220 C 291.895 291.419,291.597 294.400,292.676 294.400 C 293.559 294.400,296.000 291.693,296.000 290.714 C 296.000 290.295,296.720 289.434,297.600 288.800 C 298.480 288.166,299.200 287.220,299.200 286.699 C 299.200 285.755,302.406 279.162,303.235 278.400 C 303.475 278.180,304.776 275.660,306.128 272.800 C 310.462 263.626,314.855 264.463,259.909 264.000 L 212.400 263.600 211.974 236.000 C 211.739 220.820,211.469 208.310,211.374 208.200 C 210.640 207.355,208.267 208.591,203.902 212.096 M274.400 220.303 C 271.540 222.197,263.620 227.349,256.800 231.752 C 249.980 236.155,241.340 241.735,237.600 244.151 C 233.860 246.567,229.143 249.504,227.118 250.679 C 217.950 255.995,219.108 257.207,233.053 256.890 L 243.335 256.657 256.406 248.128 C 263.595 243.438,274.194 236.566,279.959 232.857 C 293.459 224.173,293.004 224.928,287.427 220.492 C 281.766 215.990,280.933 215.978,274.400 220.303 M288.331 222.800 C 290.652 224.148,289.115 225.760,279.939 231.600 C 270.330 237.715,265.777 240.654,252.267 249.462 L 243.334 255.286 233.267 255.538 C 223.160 255.790,221.663 255.389,225.000 253.322 C 228.655 251.057,253.591 235.176,265.985 227.219 C 281.764 217.089,281.349 217.253,284.477 219.902 C 285.839 221.056,287.573 222.360,288.331 222.800 M86.188 273.000 C 86.701 276.991,89.519 282.960,91.914 285.124 C 92.841 285.962,93.600 287.180,93.600 287.830 C 93.600 288.480,94.238 289.595,95.018 290.306 C 95.799 291.018,96.861 292.568,97.379 293.751 C 98.461 296.221,101.228 298.049,101.999 296.802 C 103.004 295.175,178.937 295.761,179.568 297.400 C 179.865 298.170,180.027 309.873,179.928 323.407 C 179.829 336.941,180.012 348.279,180.335 348.602 C 181.915 350.182,210.297 349.252,210.914 347.600 C 211.242 346.720,211.711 334.840,211.956 321.200 L 212.400 296.400 247.800 296.192 C 271.247 296.054,283.200 296.256,283.200 296.792 C 283.200 297.236,285.000 297.600,287.200 297.600 C 290.222 297.600,291.200 297.307,291.200 296.400 C 291.200 295.021,289.765 294.873,286.914 295.957 C 285.435 296.519,284.678 296.416,283.964 295.557 C 282.669 293.997,212.912 293.808,211.360 295.360 C 210.656 296.064,210.400 302.672,210.400 320.103 C 210.400 340.657,210.229 344.056,209.143 345.143 C 207.530 346.755,190.470 347.109,182.200 345.702 C 181.870 345.646,181.600 334.646,181.600 321.257 C 181.600 300.194,181.431 296.745,180.343 295.657 C 179.235 294.549,174.506 294.400,140.441 294.400 C 107.066 294.400,101.660 294.236,100.800 293.200 C 100.252 292.540,99.308 292.000,98.702 292.000 C 98.069 292.000,97.600 291.174,97.600 290.057 C 97.600 288.989,97.060 287.574,96.400 286.914 C 95.740 286.254,95.200 285.338,95.200 284.878 C 95.200 283.280,89.455 272.916,88.331 272.484 C 87.709 272.245,87.200 271.499,87.200 270.825 C 87.200 270.151,86.874 269.600,86.476 269.600 C 86.078 269.600,85.949 271.130,86.188 273.000 M146.400 302.988 C 145.740 303.242,141.960 305.624,138.000 308.281 C 134.040 310.939,128.820 314.151,126.400 315.420 C 123.258 317.068,122.686 317.580,124.400 317.211 C 125.720 316.927,129.050 315.278,131.800 313.547 C 134.550 311.816,139.094 308.949,141.898 307.175 L 146.996 303.949 156.898 304.175 L 166.800 304.400 158.152 310.000 C 135.007 324.987,134.807 325.132,134.583 327.200 C 134.368 329.180,134.376 329.183,135.383 327.467 C 136.853 324.963,150.228 315.788,163.931 307.884 C 171.202 303.689,169.746 302.390,157.856 302.463 C 152.215 302.498,147.060 302.734,146.400 302.988 M224.561 302.905 C 223.578 303.889,225.696 306.416,228.853 308.027 C 235.650 311.494,251.741 322.637,254.576 325.839 C 257.213 328.817,257.555 328.995,257.576 327.400 C 257.590 326.360,257.116 325.600,256.454 325.600 C 255.824 325.600,255.087 324.905,254.817 324.055 C 254.548 323.205,252.633 321.526,250.563 320.324 C 248.494 319.123,243.647 316.044,239.793 313.482 C 235.939 310.921,231.325 308.080,229.540 307.170 C 224.320 304.506,225.841 303.793,236.432 303.940 L 246.000 304.072 254.400 309.602 C 259.020 312.644,264.197 315.712,265.905 316.421 C 268.216 317.380,268.779 317.941,268.105 318.615 C 267.607 319.113,267.200 320.168,267.200 320.960 C 267.200 322.879,270.365 322.917,270.495 321.000 C 270.744 317.312,269.491 315.782,265.200 314.535 C 263.880 314.152,258.896 311.265,254.124 308.119 L 245.447 302.400 235.257 302.400 C 229.652 302.400,224.839 302.627,224.561 302.905 M125.298 323.400 C 126.488 325.411,129.226 327.973,130.200 327.986 C 131.703 328.007,131.402 325.231,129.737 323.724 C 127.989 322.142,124.398 321.880,125.298 323.400 " stroke="none" fill="#f497a0" fill-rule="evenodd"></path><path id="path4" d="M171.200 39.200 C 171.200 39.640,172.799 40.000,174.753 40.000 C 176.707 40.000,178.528 39.640,178.800 39.200 C 179.105 38.707,177.742 38.400,175.247 38.400 C 173.021 38.400,171.200 38.760,171.200 39.200 M195.440 144.330 C 194.676 145.678,184.524 157.091,181.400 160.114 C 180.190 161.284,179.200 162.487,179.200 162.788 C 179.200 163.843,196.196 182.400,197.162 182.400 C 198.019 182.400,204.334 175.833,212.789 166.152 L 215.451 163.103 213.125 160.929 C 211.846 159.734,208.100 155.748,204.800 152.073 C 195.695 141.932,196.446 142.553,195.440 144.330 M208.400 160.000 C 208.961 160.908,200.689 160.920,191.200 160.025 C 185.887 159.524,186.500 159.444,196.553 159.329 C 203.403 159.251,208.102 159.517,208.400 160.000 M213.581 163.600 C 213.558 164.650,198.365 181.128,197.132 181.441 C 196.609 181.574,195.391 180.674,194.425 179.441 C 193.459 178.209,191.349 175.756,189.735 173.991 C 183.491 167.163,180.800 163.972,180.800 163.398 C 180.800 163.069,188.179 162.800,197.199 162.800 C 207.611 162.800,213.593 163.092,213.581 163.600 M318.613 201.876 C 318.634 204.447,318.911 206.067,319.227 205.476 C 319.543 204.884,319.526 202.780,319.188 200.800 L 318.573 197.200 318.613 201.876 " stroke="none" fill="#ff8000" fill-rule="evenodd"></path><path id="path5" d="M191.200 39.200 C 189.910 40.520,188.636 41.600,188.370 41.600 C 188.104 41.600,187.298 42.188,186.579 42.907 C 185.515 43.971,185.205 44.008,184.914 43.107 C 184.010 40.306,179.785 37.606,178.800 39.200 C 178.528 39.640,176.707 40.000,174.753 40.000 C 172.799 40.000,171.200 39.640,171.200 39.200 C 171.200 37.849,168.888 38.312,167.200 40.000 C 166.320 40.880,165.018 41.600,164.308 41.600 C 162.794 41.600,157.272 47.369,155.575 50.723 C 153.797 54.237,153.956 65.272,155.800 66.304 C 156.570 66.735,157.110 67.293,157.000 67.544 C 156.518 68.644,156.928 69.510,158.834 71.416 L 160.867 73.449 158.311 74.725 C 156.905 75.426,155.089 76.000,154.277 76.000 C 153.465 76.000,152.800 76.360,152.800 76.800 C 152.800 77.240,152.080 77.600,151.200 77.600 C 150.320 77.600,149.600 77.960,149.600 78.400 C 149.600 78.840,149.123 79.200,148.539 79.200 C 147.956 79.200,146.606 80.134,145.539 81.276 C 144.473 82.418,142.582 83.882,141.337 84.529 C 140.093 85.176,137.966 86.765,136.611 88.060 C 135.256 89.355,133.971 90.237,133.754 90.021 C 133.154 89.421,120.052 102.499,120.238 103.513 C 120.327 104.001,119.950 104.310,119.400 104.200 C 118.850 104.090,118.400 104.679,118.400 105.510 C 118.400 106.340,117.323 107.870,116.007 108.910 C 114.691 109.949,113.611 111.430,113.607 112.200 C 113.603 112.970,113.301 113.600,112.935 113.600 C 112.570 113.600,111.760 114.590,111.135 115.800 C 110.511 117.010,109.186 118.900,108.191 120.000 C 107.196 121.100,106.182 122.630,105.937 123.400 C 105.692 124.170,105.156 124.800,104.746 124.800 C 104.336 124.800,104.000 125.499,104.000 126.353 C 104.000 127.207,103.640 128.128,103.200 128.400 C 102.760 128.672,102.400 129.593,102.400 130.447 C 102.400 131.301,102.040 132.000,101.600 132.000 C 101.160 132.000,100.800 132.529,100.800 133.176 C 100.800 133.822,100.114 135.573,99.275 137.066 C 96.772 141.524,96.265 142.598,94.494 147.215 C 93.562 149.644,92.800 152.182,92.800 152.855 C 92.800 153.529,92.431 154.449,91.981 154.899 C 91.530 155.350,91.197 156.952,91.240 158.459 C 91.669 173.495,90.694 175.708,85.167 172.255 C 83.182 171.015,80.217 168.800,78.579 167.333 C 74.516 163.695,69.850 161.317,69.325 162.615 C 69.013 163.385,68.913 163.381,68.863 162.600 C 68.817 161.866,66.517 161.602,60.200 161.606 L 51.600 161.612 49.769 164.819 C 47.352 169.050,47.498 175.166,50.000 174.555 C 50.880 174.340,51.351 174.435,51.048 174.767 C 50.294 175.591,57.586 179.386,64.369 181.700 L 69.939 183.600 65.569 184.100 C 63.166 184.375,59.040 185.054,56.400 185.609 C 53.760 186.164,49.649 186.738,47.265 186.884 C 44.881 187.030,42.559 187.521,42.105 187.975 C 41.651 188.429,40.632 188.800,39.840 188.800 C 38.628 188.800,38.400 189.496,38.400 193.200 C 38.400 197.102,38.586 197.600,40.040 197.600 C 40.942 197.600,42.823 198.192,44.222 198.915 C 46.223 199.949,48.865 200.203,56.633 200.108 C 67.287 199.977,68.243 200.562,61.025 202.798 C 49.675 206.315,40.137 224.000,49.590 224.000 C 50.087 224.000,50.272 224.360,50.000 224.800 C 49.299 225.934,50.671 225.794,51.957 224.600 C 52.819 223.800,52.922 223.800,52.470 224.600 C 52.101 225.254,52.456 225.600,53.499 225.600 C 54.375 225.600,55.294 224.970,55.542 224.200 C 55.946 222.940,67.014 219.157,70.200 219.190 C 70.860 219.196,71.204 217.906,71.211 215.400 C 71.225 210.470,71.937 207.875,73.091 208.547 C 73.591 208.837,73.413 208.383,72.695 207.538 C 69.953 204.309,70.248 199.200,73.175 199.200 C 73.790 199.200,79.987 202.307,86.947 206.103 C 93.906 209.900,103.020 214.811,107.200 217.016 C 115.957 221.635,118.832 223.205,127.449 228.071 C 138.327 234.214,142.810 236.286,138.978 233.400 C 137.811 232.521,138.776 231.432,146.953 224.400 C 152.070 220.000,159.441 213.610,163.334 210.200 C 167.226 206.790,170.956 204.000,171.621 204.000 C 173.478 204.000,179.200 207.877,179.200 209.135 C 179.200 209.844,179.764 210.103,180.748 209.845 C 181.744 209.585,184.517 210.898,188.511 213.520 C 196.438 218.724,195.862 218.839,206.661 209.877 C 207.905 208.845,209.615 208.000,210.461 208.000 C 211.413 208.000,212.000 207.447,212.000 206.550 C 212.000 205.321,215.871 201.600,217.151 201.600 C 217.379 201.600,220.414 199.350,223.894 196.600 C 231.740 190.400,238.375 185.559,239.749 185.032 C 240.322 184.812,245.203 187.984,250.595 192.081 C 255.988 196.177,264.456 202.568,269.414 206.282 C 275.109 210.549,278.603 213.729,278.901 214.918 C 279.214 216.166,279.954 216.800,281.098 216.800 C 282.047 216.800,285.085 218.630,287.849 220.867 C 292.030 224.250,293.077 224.766,294.075 223.937 C 294.976 223.190,295.035 222.793,294.313 222.346 C 292.880 221.461,316.410 196.400,318.675 196.400 C 321.543 196.400,321.631 204.551,318.794 207.388 C 316.798 209.384,316.779 209.486,318.317 209.974 C 320.545 210.681,321.050 212.912,320.087 217.806 C 317.337 231.787,317.394 235.022,320.392 235.266 C 320.837 235.302,322.259 235.504,323.554 235.714 C 331.565 237.014,332.798 231.408,326.634 221.713 C 323.340 216.532,323.377 216.471,328.349 218.884 C 330.521 219.938,332.729 220.800,333.256 220.800 C 333.782 220.800,334.402 221.520,334.632 222.400 C 335.052 224.008,337.600 224.695,337.600 223.200 C 337.600 222.760,338.320 222.400,339.200 222.400 C 340.080 222.400,340.800 222.760,340.800 223.200 C 340.800 223.640,341.340 224.000,342.000 224.000 C 342.660 224.000,343.200 224.336,343.200 224.746 C 343.200 225.157,344.353 225.460,345.763 225.420 C 348.299 225.348,352.000 222.600,352.000 220.789 C 352.000 220.303,352.360 220.128,352.800 220.400 C 353.293 220.704,353.600 219.359,353.600 216.898 C 353.600 213.090,353.370 212.664,348.711 207.851 L 343.823 202.800 347.711 202.591 C 353.122 202.300,355.200 201.737,355.200 200.561 C 355.200 200.007,355.920 199.034,356.800 198.400 C 359.676 196.327,358.250 187.221,355.047 187.206 C 354.303 187.203,353.472 186.840,353.200 186.400 C 352.928 185.960,351.467 185.600,349.953 185.600 C 348.439 185.600,347.200 185.240,347.200 184.800 C 347.200 184.349,344.933 184.000,342.000 184.000 C 335.443 184.000,335.443 183.157,342.003 180.369 C 348.531 177.594,348.929 177.088,349.384 170.991 C 349.996 162.794,348.539 161.600,337.931 161.600 C 333.337 161.600,328.953 161.913,328.189 162.296 C 327.425 162.680,324.916 163.850,322.612 164.896 C 320.309 165.943,318.419 167.070,318.412 167.400 C 318.406 167.730,317.855 168.000,317.189 168.000 C 315.645 168.000,312.792 169.597,311.115 171.400 C 310.398 172.170,309.246 172.800,308.553 172.800 C 307.861 172.800,307.068 173.166,306.792 173.613 C 305.819 175.187,305.093 173.649,305.253 170.355 C 305.342 168.523,304.918 166.074,304.312 164.912 C 303.706 163.751,303.208 162.214,303.205 161.498 C 303.202 160.782,302.660 159.748,302.000 159.200 C 301.311 158.628,300.800 156.883,300.800 155.102 C 300.800 153.396,300.440 152.000,300.000 152.000 C 299.560 152.000,299.200 150.740,299.200 149.200 C 299.200 147.660,298.840 146.400,298.400 146.400 C 297.960 146.400,297.600 145.680,297.600 144.800 C 297.600 143.920,297.240 143.200,296.800 143.200 C 296.360 143.200,296.000 142.355,296.000 141.323 C 296.000 139.117,294.068 134.985,292.383 133.586 C 291.733 133.046,291.200 132.139,291.200 131.571 C 291.200 130.025,286.325 120.800,285.508 120.800 C 285.119 120.800,284.800 120.406,284.800 119.923 C 284.800 119.441,284.091 118.051,283.224 116.833 C 282.357 115.616,281.826 114.441,282.045 114.222 C 282.263 114.003,281.083 112.577,279.421 111.051 C 277.760 109.526,275.700 107.046,274.845 105.539 C 273.143 102.542,271.676 100.850,270.657 100.710 C 270.296 100.660,267.300 97.649,264.000 94.019 C 260.700 90.389,256.920 86.947,255.600 86.370 C 254.280 85.794,252.556 84.665,251.769 83.861 C 250.982 83.057,249.674 82.400,248.862 82.400 C 248.051 82.400,247.198 81.680,246.968 80.800 C 246.718 79.843,245.877 79.200,244.875 79.200 C 243.954 79.200,243.200 78.840,243.200 78.400 C 243.200 77.960,242.501 77.600,241.647 77.600 C 240.793 77.600,239.872 77.240,239.600 76.800 C 239.328 76.360,238.407 76.000,237.553 76.000 C 236.699 76.000,236.000 75.640,236.000 75.200 C 236.000 74.760,235.300 74.400,234.445 74.400 C 233.590 74.400,232.394 73.691,231.786 72.823 C 231.155 71.922,229.594 71.164,228.141 71.053 C 226.744 70.947,225.600 70.576,225.600 70.230 C 225.600 69.883,224.520 69.600,223.200 69.600 C 221.880 69.600,220.800 69.240,220.800 68.800 C 220.800 68.360,220.108 68.000,219.263 68.000 C 217.909 68.000,217.727 67.404,217.740 63.000 C 217.766 54.288,217.794 54.400,215.600 54.400 C 214.344 54.400,213.600 53.948,213.600 53.184 C 213.600 52.324,213.015 52.075,211.600 52.331 C 210.500 52.531,209.549 52.448,209.486 52.147 C 209.423 51.846,209.274 50.418,209.155 48.973 C 208.925 46.201,204.451 40.189,202.526 40.068 C 201.936 40.030,200.537 39.280,199.418 38.400 C 196.552 36.145,193.937 36.400,191.200 39.200 M236.970 121.617 C 241.403 123.312,243.745 125.075,247.400 129.475 C 253.098 136.332,246.156 141.981,239.957 135.532 C 233.240 128.544,227.388 128.658,220.767 135.907 C 217.187 139.827,211.200 138.505,211.200 133.794 C 211.200 125.714,227.517 118.003,236.970 121.617 M168.400 125.234 C 176.840 130.343,180.229 135.853,177.076 139.337 C 174.952 141.683,171.861 141.161,168.757 137.932 C 165.332 134.368,162.411 132.800,159.200 132.800 C 155.989 132.800,153.068 134.368,149.643 137.932 C 143.823 143.987,136.690 138.876,141.793 132.308 C 149.032 122.990,159.914 120.097,168.400 125.234 M202.192 147.446 C 204.498 150.171,208.569 154.679,211.238 157.464 C 213.907 160.249,215.980 162.831,215.845 163.202 C 215.130 165.172,198.004 183.190,196.900 183.136 C 195.861 183.084,181.922 168.020,178.864 163.643 C 177.984 162.383,194.871 142.455,196.800 142.478 C 197.460 142.486,199.887 144.721,202.192 147.446 M70.121 224.566 C 69.452 225.859,68.342 227.384,67.653 227.956 C 64.691 230.414,67.032 234.726,71.852 235.690 C 74.801 236.280,74.782 236.360,73.471 228.892 C 72.328 222.382,71.682 221.547,70.121 224.566 " stroke="none" fill="#f4cf3d" fill-rule="evenodd"></path><path id="path6" d="M230.853 121.686 C 231.096 122.079,232.005 122.400,232.873 122.400 C 237.269 122.400,248.000 130.352,248.000 133.610 C 248.000 137.502,244.346 137.665,240.757 133.934 C 239.241 132.358,237.280 130.678,236.400 130.200 C 235.520 129.723,236.780 131.178,239.200 133.435 C 243.982 137.895,245.451 138.375,247.476 136.137 C 250.882 132.374,242.606 123.713,233.690 121.709 C 231.802 121.285,230.599 121.275,230.853 121.686 M223.413 122.787 C 220.679 123.976,212.800 130.917,212.800 132.137 C 212.800 132.532,213.922 131.578,215.293 130.016 C 218.789 126.034,222.108 123.836,226.351 122.692 C 228.696 122.060,229.285 121.700,228.000 121.685 C 226.900 121.673,224.836 122.169,223.413 122.787 M156.600 124.579 C 158.030 124.756,160.370 124.756,161.800 124.579 C 163.230 124.401,162.060 124.256,159.200 124.256 C 156.340 124.256,155.170 124.401,156.600 124.579 M148.925 127.113 C 141.410 132.098,139.231 136.833,143.378 139.161 C 145.471 140.336,145.650 140.278,148.573 137.467 C 150.238 135.866,152.860 133.802,154.400 132.881 C 155.940 131.960,156.830 131.205,156.378 131.203 C 155.195 131.199,152.055 133.407,148.624 136.659 C 145.951 139.191,145.441 139.384,143.624 138.556 C 139.775 136.803,142.523 132.023,150.167 127.176 C 152.227 125.869,153.573 124.802,153.157 124.803 C 152.740 124.805,150.836 125.844,148.925 127.113 M168.043 127.060 C 170.000 128.303,172.770 130.655,174.200 132.288 C 176.873 135.339,177.856 135.346,175.382 132.295 C 173.589 130.083,166.540 124.800,165.382 124.800 C 164.890 124.800,166.087 125.817,168.043 127.060 M226.781 129.116 C 225.451 129.696,222.639 131.662,220.533 133.485 C 216.228 137.211,216.515 137.100,214.147 135.956 C 212.459 135.140,212.453 135.154,213.953 136.356 C 216.208 138.163,216.910 137.953,220.659 134.351 C 224.772 130.399,228.893 128.556,232.283 129.153 C 234.230 129.495,234.437 129.428,233.200 128.854 C 230.994 127.832,229.599 127.889,226.781 129.116 M164.000 132.881 C 165.540 133.802,168.110 135.815,169.711 137.354 C 172.978 140.493,174.852 140.560,176.568 137.600 C 177.724 135.608,177.723 135.607,176.366 137.400 C 174.654 139.663,172.685 139.692,170.724 137.483 C 168.703 135.206,163.188 131.199,162.080 131.203 C 161.596 131.205,162.460 131.960,164.000 132.881 M234.000 192.432 C 231.360 194.370,227.351 197.218,225.091 198.760 C 219.799 202.372,219.916 201.700,220.052 227.668 C 220.175 251.100,220.214 251.321,223.686 248.589 C 225.809 246.919,230.367 243.915,248.400 232.296 C 264.887 221.673,270.918 217.806,273.000 216.521 C 276.118 214.597,275.739 213.606,270.565 210.153 C 268.054 208.477,260.600 202.990,254.000 197.960 C 240.419 187.608,240.528 187.638,234.000 192.432 M167.807 209.547 C 166.822 210.953,149.787 225.874,144.852 229.654 C 142.822 231.208,142.817 231.238,144.400 232.468 C 146.822 234.349,170.309 249.600,170.785 249.600 C 171.013 249.600,171.200 240.240,171.200 228.800 C 171.200 207.046,170.870 205.174,167.807 209.547 M74.476 217.400 C 74.835 219.050,75.546 223.460,76.056 227.200 C 76.566 230.940,77.891 237.420,79.000 241.600 C 80.110 245.780,81.191 250.398,81.403 251.861 C 81.913 255.377,79.884 255.136,111.001 255.383 C 140.178 255.614,141.206 255.469,135.000 251.987 C 131.633 250.098,128.465 248.074,98.631 228.753 C 72.749 211.992,73.360 212.279,74.476 217.400 M310.400 217.984 C 303.153 222.837,262.852 248.781,258.055 251.682 C 255.886 252.994,253.996 254.412,253.855 254.834 C 253.484 255.942,308.018 255.381,309.367 254.262 C 309.935 253.790,310.400 252.572,310.400 251.554 C 310.400 250.537,310.795 248.691,311.277 247.452 C 312.616 244.015,316.122 227.459,316.767 221.534 C 317.082 218.637,317.600 215.847,317.917 215.334 C 319.167 213.311,315.391 214.643,310.400 217.984 M111.538 304.901 C 111.257 305.356,112.264 306.869,113.776 308.264 C 117.406 311.612,119.485 314.903,118.913 316.394 C 118.578 317.267,118.993 317.600,120.416 317.600 C 121.951 317.600,122.339 317.225,122.191 315.885 C 122.045 314.572,123.216 313.361,127.200 310.711 C 137.705 303.721,137.964 304.278,124.160 304.170 C 116.586 304.110,111.857 304.384,111.538 304.901 M256.994 304.982 C 257.142 305.427,258.928 306.738,260.961 307.896 C 262.995 309.053,265.811 310.900,267.220 312.000 C 271.357 315.230,272.502 315.390,274.012 312.952 C 274.745 311.768,276.662 309.629,278.272 308.198 C 280.698 306.043,280.994 305.464,280.000 304.820 C 278.369 303.765,256.640 303.919,256.994 304.982 M220.534 307.787 C 220.326 308.124,220.110 315.696,220.052 324.614 L 219.947 340.828 222.046 342.773 C 223.201 343.843,223.930 345.066,223.667 345.492 C 223.185 346.271,227.036 345.266,229.789 343.893 C 230.553 343.512,231.993 343.158,232.989 343.107 C 234.344 343.038,234.447 342.922,233.400 342.649 C 231.816 342.235,231.532 340.384,232.921 339.525 C 233.428 339.212,234.278 339.551,234.810 340.278 C 235.341 341.005,236.616 341.600,237.641 341.600 C 239.456 341.600,239.464 341.568,237.953 340.399 C 236.433 339.224,236.442 339.165,238.400 337.600 C 239.500 336.720,240.858 335.619,241.417 335.153 C 243.977 333.019,247.401 332.498,248.548 334.067 C 249.613 335.523,249.668 335.513,250.119 333.788 C 250.376 332.805,250.926 332.000,251.341 332.000 C 251.755 332.000,251.872 332.360,251.600 332.800 C 250.905 333.925,252.136 333.750,253.800 332.486 C 254.570 331.902,255.200 330.833,255.200 330.112 C 255.200 329.390,255.581 328.800,256.047 328.800 C 256.513 328.800,256.672 328.440,256.400 328.000 C 256.128 327.560,254.937 327.199,253.753 327.197 C 251.905 327.194,228.471 313.085,224.060 309.319 C 222.062 307.613,220.940 307.126,220.534 307.787 M154.625 318.256 C 146.169 323.835,139.246 328.760,139.241 329.200 C 139.230 330.140,151.733 336.231,159.200 338.923 C 162.060 339.953,165.163 341.193,166.095 341.677 C 170.625 344.031,170.781 343.504,171.016 324.990 C 171.135 315.645,170.955 308.025,170.616 308.056 C 170.277 308.087,163.081 312.677,154.625 318.256 M271.554 316.875 C 271.307 317.274,272.027 317.600,273.153 317.600 C 275.604 317.600,275.802 317.144,273.601 316.568 C 272.721 316.338,271.800 316.476,271.554 316.875 M229.449 342.609 C 229.634 343.569,229.204 344.000,228.059 344.000 C 226.914 344.000,226.400 343.486,226.400 342.341 C 226.400 340.291,229.048 340.524,229.449 342.609 " stroke="none" fill="#4658aa" fill-rule="evenodd"></path><path id="path7" d="M157.000 123.773 C 158.210 123.956,160.190 123.956,161.400 123.773 C 162.610 123.590,161.620 123.440,159.200 123.440 C 156.780 123.440,155.790 123.590,157.000 123.773 M148.400 126.870 L 146.000 128.932 148.800 127.125 C 152.392 124.807,152.401 124.799,151.533 124.804 C 151.130 124.806,149.720 125.736,148.400 126.870 M215.562 128.200 L 212.400 131.600 215.800 128.438 C 218.962 125.497,219.568 124.800,218.962 124.800 C 218.832 124.800,217.302 126.330,215.562 128.200 M168.400 126.114 C 172.473 129.729,173.974 130.783,172.403 128.926 C 171.531 127.895,170.094 126.681,169.209 126.228 C 168.324 125.775,167.960 125.724,168.400 126.114 M156.000 131.990 C 155.183 132.511,155.821 132.598,158.000 132.264 C 161.955 131.658,162.628 131.196,159.533 131.212 C 158.250 131.219,156.660 131.569,156.000 131.990 M239.600 134.400 C 241.319 136.160,242.905 137.600,243.125 137.600 C 243.345 137.600,242.119 136.160,240.400 134.400 C 238.681 132.640,237.095 131.200,236.875 131.200 C 236.655 131.200,237.881 132.640,239.600 134.400 M212.109 133.640 C 211.999 135.698,213.250 137.600,214.713 137.600 C 215.149 137.600,214.922 137.150,214.209 136.600 C 213.497 136.050,212.757 134.700,212.566 133.600 L 212.218 131.600 212.109 133.640 M148.757 137.400 L 146.000 140.400 149.000 137.643 C 151.792 135.077,152.368 134.400,151.757 134.400 C 151.623 134.400,150.273 135.750,148.757 137.400 M169.162 137.400 C 172.970 141.494,177.600 141.361,177.600 137.159 C 177.600 136.766,177.040 137.244,176.355 138.222 C 174.599 140.729,172.948 140.446,169.234 137.000 L 166.000 134.000 169.162 137.400 M142.289 139.153 C 143.327 140.059,144.557 140.800,145.022 140.800 C 146.006 140.800,145.959 140.760,142.800 138.910 L 140.400 137.505 142.289 139.153 M230.267 193.801 C 225.134 197.431,220.544 201.227,220.067 202.238 C 219.075 204.341,218.820 250.400,219.800 250.401 C 220.130 250.401,220.287 240.592,220.148 228.603 C 219.837 201.737,219.725 202.420,225.032 198.800 C 227.325 197.236,231.360 194.370,234.000 192.432 C 240.121 187.937,240.857 187.970,247.600 193.045 C 250.680 195.362,257.788 200.725,263.395 204.961 C 269.002 209.197,274.042 212.827,274.595 213.027 C 275.384 213.313,275.357 213.801,274.471 215.295 C 273.436 217.043,273.452 217.109,274.671 216.102 C 276.815 214.330,276.253 213.118,271.800 209.914 C 269.490 208.252,264.540 204.486,260.800 201.545 C 251.176 193.977,241.592 187.200,240.516 187.201 C 240.012 187.202,235.400 190.172,230.267 193.801 M156.800 218.057 C 149.540 224.391,143.330 229.579,143.000 229.587 C 141.015 229.631,142.933 232.729,146.201 234.760 C 148.291 236.058,154.622 240.148,160.270 243.850 C 166.594 247.993,170.826 250.294,171.284 249.836 C 172.314 248.806,171.845 206.992,170.800 206.737 C 170.360 206.629,164.060 211.723,156.800 218.057 M171.200 228.800 C 171.200 240.240,171.013 249.600,170.785 249.600 C 170.309 249.600,146.822 234.349,144.400 232.468 C 142.817 231.238,142.822 231.208,144.852 229.654 C 149.787 225.874,166.822 210.953,167.807 209.547 C 170.870 205.174,171.200 207.046,171.200 228.800 M73.212 217.000 C 74.100 224.996,75.358 231.651,78.143 243.090 C 79.681 249.410,80.762 255.259,80.545 256.089 C 80.031 258.056,81.594 259.011,82.545 257.312 C 83.200 256.143,86.172 255.980,109.840 255.816 L 136.400 255.632 109.213 255.216 L 82.026 254.800 81.508 252.000 C 81.223 250.460,80.089 245.780,78.987 241.600 C 77.885 237.420,76.566 230.940,76.056 227.200 C 75.546 223.460,74.835 219.050,74.476 217.400 C 73.697 213.826,74.510 213.575,78.754 216.079 C 80.319 217.002,81.600 217.558,81.600 217.313 C 81.600 216.666,74.833 212.800,73.702 212.800 C 73.021 212.800,72.880 214.013,73.212 217.000 M316.400 213.600 C 316.128 214.040,316.488 214.400,317.200 214.400 C 317.983 214.400,318.266 214.769,317.917 215.334 C 317.600 215.847,317.082 218.637,316.767 221.534 C 316.025 228.359,311.038 250.731,309.620 253.600 C 309.117 254.618,304.973 254.864,282.313 255.222 L 255.600 255.643 282.713 255.622 C 306.007 255.603,309.908 255.431,310.408 254.400 C 312.094 250.926,313.892 244.478,314.790 238.684 C 315.346 235.101,315.995 231.855,316.232 231.472 C 316.469 231.089,317.049 228.081,317.522 224.787 C 317.995 221.494,318.613 217.450,318.896 215.800 C 319.403 212.839,317.764 211.394,316.400 213.600 M297.948 225.264 C 288.736 231.240,280.840 236.526,280.400 237.011 C 279.473 238.034,279.666 237.914,299.200 225.348 C 313.335 216.256,316.031 214.400,315.108 214.400 C 314.881 214.400,307.159 219.289,297.948 225.264 M263.535 222.485 C 258.731 225.611,251.740 230.142,248.000 232.552 C 228.614 245.046,225.102 247.381,224.000 248.508 C 223.340 249.183,224.960 248.324,227.600 246.600 C 230.240 244.876,235.100 241.725,238.400 239.598 C 241.700 237.471,247.820 233.512,252.000 230.799 C 256.180 228.087,262.570 223.973,266.200 221.657 C 272.006 217.952,273.509 216.800,272.535 216.800 C 272.389 216.800,268.339 219.358,263.535 222.485 M87.200 221.029 C 87.200 221.256,91.250 224.066,96.200 227.274 C 113.811 238.686,124.800 245.574,124.800 245.201 C 124.800 244.993,123.450 243.955,121.800 242.893 C 120.150 241.832,112.500 236.916,104.800 231.969 C 97.100 227.021,89.990 222.443,89.000 221.795 C 88.010 221.146,87.200 220.802,87.200 221.029 M268.800 244.061 C 263.300 247.601,257.467 251.253,255.837 252.175 C 252.588 254.015,251.519 255.644,253.151 256.271 C 253.749 256.500,254.158 256.157,254.101 255.472 C 254.040 254.749,258.352 251.509,264.929 247.335 C 276.382 240.068,279.867 237.704,279.200 237.654 C 278.980 237.637,274.300 240.520,268.800 244.061 M127.200 247.065 C 129.486 248.957,135.200 252.289,135.200 251.730 C 135.200 251.526,133.999 250.649,132.531 249.783 C 131.063 248.917,128.813 247.579,127.531 246.809 L 125.200 245.410 127.200 247.065 M137.000 253.001 C 137.770 253.647,138.400 254.587,138.400 255.088 C 138.400 255.590,138.790 256.000,139.267 256.000 C 140.672 256.000,139.669 254.229,137.556 252.981 C 135.829 251.960,135.764 251.963,137.000 253.001 M110.600 303.730 C 109.049 304.356,109.386 305.320,112.200 308.302 C 116.344 312.694,116.800 313.414,116.800 315.566 C 116.800 317.786,118.172 318.324,118.913 316.394 C 119.485 314.903,117.406 311.612,113.776 308.264 C 109.641 304.450,110.621 304.063,124.151 304.170 L 136.253 304.265 134.082 306.132 C 131.574 308.290,131.960 308.587,134.828 306.708 C 139.319 303.766,137.562 303.196,124.200 303.263 C 117.270 303.298,111.150 303.508,110.600 303.730 M255.200 303.876 C 255.200 304.656,257.444 306.698,259.200 307.515 C 259.860 307.823,259.590 307.474,258.600 306.739 C 255.515 304.452,256.483 304.175,267.800 304.109 C 281.051 304.030,282.379 304.549,278.272 308.198 C 276.662 309.629,274.755 311.752,274.036 312.916 C 272.604 315.229,270.805 315.225,268.270 312.903 C 266.149 310.960,261.854 308.000,261.156 308.000 C 260.828 308.000,262.054 309.082,263.880 310.405 C 265.706 311.728,267.200 313.100,267.200 313.454 C 267.200 314.903,270.599 317.721,271.391 316.929 C 271.833 316.487,272.720 316.326,273.361 316.572 C 277.134 318.020,284.390 306.634,281.188 304.292 C 279.498 303.057,255.200 302.668,255.200 303.876 M219.593 307.212 C 218.576 308.857,219.388 346.301,220.449 346.708 C 223.227 347.774,224.459 345.009,222.157 342.875 L 219.929 340.811 220.165 324.205 C 220.353 310.939,220.613 307.644,221.459 307.820 C 222.042 307.941,222.291 307.671,222.012 307.220 C 221.365 306.173,220.237 306.169,219.593 307.212 M167.488 309.241 L 165.200 311.356 167.508 309.678 C 168.777 308.755,170.134 308.000,170.524 308.000 C 170.919 308.000,171.136 315.505,171.016 324.990 C 170.781 343.504,170.625 344.031,166.095 341.677 C 165.163 341.193,162.060 339.953,159.200 338.923 C 151.771 336.245,139.235 330.144,139.216 329.198 C 139.207 328.758,143.340 325.745,148.400 322.504 C 156.935 317.036,161.402 313.566,154.600 317.687 C 147.421 322.036,137.600 328.901,137.600 329.570 C 137.600 330.285,149.328 336.130,157.200 339.338 C 166.205 343.008,172.134 346.871,166.200 345.202 C 164.791 344.805,164.661 344.878,165.600 345.535 C 166.260 345.997,167.919 346.381,169.287 346.388 L 171.775 346.400 171.687 327.068 C 171.593 306.121,171.462 305.566,167.488 309.241 M127.786 310.029 C 126.144 311.145,124.800 312.230,124.800 312.440 C 124.800 312.651,126.240 311.870,128.000 310.705 C 130.795 308.856,131.739 308.000,130.986 308.000 C 130.868 308.000,129.428 308.913,127.786 310.029 M224.000 309.082 C 224.660 309.758,229.891 313.321,235.623 316.999 C 247.739 324.773,248.711 325.358,247.600 324.204 C 247.160 323.747,241.400 319.881,234.800 315.613 C 228.200 311.344,223.340 308.405,224.000 309.082 M249.953 325.941 C 250.807 326.633,252.427 327.163,253.553 327.118 C 255.435 327.043,255.401 326.989,253.130 326.446 C 251.772 326.121,250.152 325.591,249.530 325.268 C 248.909 324.945,249.099 325.248,249.953 325.941 M244.190 333.629 C 243.194 334.029,241.934 334.726,241.390 335.178 C 240.845 335.631,239.500 336.720,238.400 337.600 C 236.419 339.184,236.415 339.211,238.000 340.436 C 239.716 341.763,242.400 339.744,242.400 337.127 C 242.400 335.568,246.394 334.696,247.243 336.069 C 247.784 336.945,248.013 336.896,248.428 335.816 C 249.460 333.126,247.701 332.218,244.190 333.629 M232.550 339.717 C 231.418 340.849,232.058 342.400,233.659 342.400 C 234.777 342.400,235.233 341.966,235.059 341.066 C 234.773 339.594,233.407 338.859,232.550 339.717 M226.400 342.341 C 226.400 343.486,226.914 344.000,228.059 344.000 C 229.204 344.000,229.634 343.569,229.449 342.609 C 229.048 340.524,226.400 340.291,226.400 342.341 " stroke="none" fill="#6e7dbb" fill-rule="evenodd"></path><path id="path8" d="M397.839 0.505 C 398.116 0.783,397.937 1.773,397.441 2.705 C 396.627 4.232,396.670 4.291,397.869 3.302 C 399.400 2.039,399.645 0.000,398.267 0.000 C 397.753 0.000,397.561 0.227,397.839 0.505 M228.600 120.565 C 229.590 120.755,231.210 120.755,232.200 120.565 C 233.190 120.374,232.380 120.218,230.400 120.218 C 228.420 120.218,227.610 120.374,228.600 120.565 M219.520 123.863 C 212.335 129.073,209.455 134.484,212.600 136.863 C 213.791 137.765,213.851 137.755,213.000 136.801 C 210.399 133.885,213.733 128.322,220.757 123.860 C 222.713 122.617,223.937 121.600,223.477 121.600 C 223.017 121.600,221.236 122.618,219.520 123.863 M238.800 122.922 C 240.120 123.614,242.993 125.849,245.185 127.890 C 247.376 129.930,248.276 130.536,247.185 129.235 C 243.891 125.308,239.070 121.652,237.200 121.660 C 236.760 121.662,237.480 122.230,238.800 122.922 M157.800 122.951 C 158.570 123.153,159.830 123.153,160.600 122.951 C 161.370 122.750,160.740 122.586,159.200 122.586 C 157.660 122.586,157.030 122.750,157.800 122.951 M164.000 123.773 C 164.660 124.019,166.190 124.719,167.400 125.330 C 168.610 125.941,169.600 126.261,169.600 126.041 C 169.600 125.413,164.996 123.193,163.840 123.263 C 163.141 123.306,163.194 123.473,164.000 123.773 M173.800 130.196 C 177.875 134.630,178.449 136.866,176.200 139.537 C 174.801 141.198,174.802 141.198,176.600 139.676 C 179.742 137.016,178.148 132.496,172.494 128.031 C 170.802 126.694,171.222 127.391,173.800 130.196 M225.578 130.919 C 224.490 131.645,222.340 133.416,220.800 134.854 C 219.260 136.293,217.100 137.630,216.000 137.826 C 214.078 138.168,214.087 138.186,216.245 138.291 C 217.824 138.368,219.166 137.660,220.767 135.907 C 227.388 128.658,233.240 128.544,239.957 135.532 C 244.238 139.986,249.756 138.951,249.491 133.743 L 249.382 131.600 249.014 133.600 C 248.104 138.554,244.110 139.053,239.957 134.732 C 234.999 129.574,229.701 128.169,225.578 130.919 M159.600 132.728 C 161.360 133.019,163.340 133.540,164.000 133.887 C 164.660 134.235,164.501 133.952,163.647 133.259 C 162.793 132.567,160.813 132.045,159.247 132.100 L 156.400 132.200 159.600 132.728 M149.031 137.620 C 147.178 139.369,145.935 140.800,146.269 140.800 C 146.602 140.800,148.281 139.360,150.000 137.600 C 154.020 133.483,153.400 133.496,149.031 137.620 M168.400 137.600 C 170.119 139.360,171.705 140.800,171.925 140.800 C 172.145 140.800,170.919 139.360,169.200 137.600 C 167.481 135.840,165.895 134.400,165.675 134.400 C 165.455 134.400,166.681 135.840,168.400 137.600 M140.000 137.505 C 140.000 138.285,143.111 141.195,143.445 140.728 C 143.575 140.548,142.853 139.603,141.840 138.629 C 140.828 137.654,140.000 137.149,140.000 137.505 M238.248 187.004 C 230.185 192.234,220.513 199.835,219.548 201.701 C 217.888 204.911,217.846 251.038,219.502 251.673 C 220.445 252.035,234.064 243.734,236.400 241.373 C 237.558 240.204,235.823 241.228,228.312 246.149 C 218.439 252.617,219.200 254.196,219.200 227.238 C 219.200 212.364,219.508 203.418,220.062 202.238 C 220.818 200.624,235.390 189.609,239.319 187.681 C 241.084 186.815,244.934 189.242,258.400 199.707 C 263.460 203.639,269.490 208.224,271.800 209.896 C 277.501 214.023,277.335 214.388,266.600 221.333 C 261.430 224.678,256.840 227.779,256.400 228.225 C 255.182 229.458,256.989 228.377,267.200 221.765 C 275.779 216.209,277.557 214.792,277.588 213.484 C 277.606 212.706,241.981 185.746,240.800 185.643 C 240.580 185.624,239.432 186.237,238.248 187.004 M166.387 208.430 C 164.854 210.020,158.638 215.524,152.572 220.661 C 140.560 230.834,140.055 231.735,144.800 234.527 L 147.600 236.174 145.600 234.505 C 144.500 233.587,143.330 232.828,143.000 232.818 C 141.584 232.776,142.577 230.092,144.592 228.515 C 145.798 227.572,152.112 222.197,158.623 216.572 C 165.134 210.946,170.808 206.558,171.231 206.819 C 172.317 207.491,172.258 249.346,171.169 250.019 C 170.712 250.301,167.742 248.775,164.569 246.628 C 157.351 241.742,156.800 241.409,156.800 241.925 C 156.800 242.971,170.588 251.299,171.646 250.893 C 173.784 250.073,172.946 206.078,170.787 205.769 C 169.781 205.625,168.126 206.625,166.387 208.430 M71.447 212.510 C 71.175 213.220,71.367 214.952,71.876 216.358 C 72.384 217.763,72.797 220.508,72.793 222.457 C 72.788 225.548,76.217 241.360,78.433 248.457 C 78.855 249.808,79.200 252.238,79.200 253.857 C 79.200 255.476,79.560 256.800,80.000 256.800 C 81.262 256.800,80.983 254.771,78.073 242.810 C 75.353 231.630,74.096 224.955,73.212 217.000 C 72.618 211.657,73.197 211.630,80.897 216.641 C 88.439 221.548,88.800 221.764,88.800 221.348 C 88.800 219.177,72.144 210.694,71.447 212.510 M307.199 218.473 C 301.700 222.034,296.840 225.340,296.400 225.820 C 295.495 226.808,296.900 225.967,306.453 219.801 C 315.839 213.742,318.273 212.406,318.857 212.991 C 319.406 213.539,318.178 222.077,316.353 230.400 C 315.725 233.260,314.895 237.760,314.507 240.400 C 313.876 244.701,311.992 251.135,310.409 254.400 C 309.914 255.420,305.651 255.662,281.913 256.016 L 254.000 256.431 282.155 256.616 L 310.309 256.800 311.555 255.022 C 312.240 254.044,312.800 252.424,312.800 251.422 C 312.800 250.133,313.268 249.600,314.400 249.600 C 316.234 249.600,316.439 248.793,315.000 247.243 C 314.190 246.370,314.216 246.289,315.136 246.814 C 315.999 247.307,316.139 247.116,315.718 246.019 C 315.393 245.173,315.703 243.752,316.465 242.589 C 317.180 241.497,317.369 240.849,316.883 241.149 C 315.729 241.862,315.696 236.102,316.837 233.103 C 317.926 230.239,320.751 213.381,320.273 212.600 C 319.382 211.145,316.565 212.410,307.199 218.473 M90.000 222.199 C 90.719 222.949,116.278 239.555,119.200 241.171 C 123.464 243.529,116.885 238.963,105.200 231.455 C 90.029 221.706,88.822 220.971,90.000 222.199 M280.099 235.960 C 273.334 240.317,267.394 244.303,266.899 244.819 C 266.405 245.335,269.960 243.266,274.800 240.223 C 288.999 231.294,293.969 227.886,292.600 228.020 C 292.490 228.030,286.865 231.604,280.099 235.960 M248.917 232.760 C 243.329 236.502,240.595 238.625,243.200 237.200 C 245.478 235.954,255.200 229.386,255.200 229.094 C 255.200 228.578,254.907 228.749,248.917 232.760 M149.547 237.448 C 150.618 238.317,152.598 239.637,153.947 240.381 L 156.400 241.733 154.453 240.152 C 153.382 239.283,151.402 237.963,150.053 237.219 L 147.600 235.867 149.547 237.448 M122.756 243.312 C 124.051 244.351,128.347 247.198,132.302 249.639 C 143.099 256.305,144.086 256.000,111.714 256.000 C 84.620 256.000,80.727 256.304,82.829 258.253 C 83.154 258.554,83.580 258.350,83.776 257.800 C 84.053 257.026,90.514 256.800,112.419 256.800 C 127.977 256.800,140.896 256.492,141.128 256.116 C 141.747 255.115,138.867 252.786,131.200 248.085 C 127.460 245.791,123.500 243.355,122.400 242.670 C 120.997 241.797,121.103 241.988,122.756 243.312 M262.600 247.292 C 259.873 249.038,258.991 250.211,261.400 248.887 C 263.236 247.878,266.111 245.654,265.600 245.639 C 265.380 245.632,264.030 246.376,262.600 247.292 M254.957 251.982 C 251.183 254.375,249.989 256.811,252.600 256.788 C 253.664 256.778,253.746 256.614,252.941 256.104 C 251.651 255.286,253.258 253.432,256.876 251.561 C 258.154 250.900,259.200 250.188,259.200 249.979 C 259.200 249.347,258.856 249.509,254.957 251.982 M109.800 302.930 C 107.891 303.700,108.715 307.030,111.262 308.844 C 113.072 310.133,113.615 311.048,113.313 312.299 C 113.028 313.480,113.498 314.439,114.852 315.437 C 116.753 316.840,116.800 316.834,116.800 315.204 C 116.800 313.416,116.259 312.604,112.200 308.302 C 107.625 303.454,108.235 303.200,124.465 303.200 C 137.532 303.200,139.093 303.723,135.000 306.726 C 133.414 307.890,133.398 307.954,134.866 307.267 C 137.118 306.213,138.652 304.254,138.022 303.235 C 137.500 302.391,111.823 302.113,109.800 302.930 M254.400 303.832 C 254.400 304.703,255.287 305.997,256.372 306.708 C 259.184 308.550,259.806 308.307,257.308 306.342 C 253.712 303.513,254.720 303.200,267.422 303.200 C 280.192 303.200,283.747 304.044,282.681 306.822 C 282.432 307.470,282.620 308.000,283.099 308.000 C 284.136 308.000,285.236 304.170,284.430 303.363 C 282.840 301.769,254.400 302.214,254.400 303.832 M218.793 306.411 C 218.202 307.368,218.462 346.605,219.055 346.011 C 219.278 345.788,219.376 337.002,219.272 326.486 C 219.148 313.837,219.368 307.191,219.922 306.849 C 220.382 306.564,223.918 308.442,227.779 311.022 C 235.588 316.241,237.635 317.476,236.400 316.224 C 234.958 314.763,220.881 305.600,220.078 305.600 C 219.647 305.600,219.069 305.965,218.793 306.411 M169.283 307.065 C 169.027 307.480,169.443 307.770,170.209 307.710 C 171.492 307.608,171.606 309.070,171.682 326.615 C 171.727 337.074,171.969 345.835,172.218 346.085 C 172.468 346.335,172.611 337.603,172.536 326.681 C 172.414 308.897,172.262 306.797,171.075 306.567 C 170.346 306.427,169.539 306.651,169.283 307.065 M164.429 310.493 C 160.226 313.651,159.833 314.175,163.054 312.324 C 165.324 311.020,168.894 307.891,167.924 308.055 C 167.746 308.085,166.173 309.182,164.429 310.493 M260.000 308.215 C 260.000 308.420,261.440 309.540,263.200 310.705 C 264.960 311.870,266.400 313.319,266.400 313.926 C 266.400 314.532,266.993 315.256,267.718 315.535 C 269.828 316.344,265.641 311.388,262.600 309.477 C 261.170 308.578,260.000 308.010,260.000 308.215 M125.800 312.080 C 123.919 313.412,122.441 315.094,122.493 315.844 C 122.577 317.072,122.620 317.067,122.951 315.800 C 123.153 315.030,123.561 314.390,123.859 314.378 C 124.156 314.367,125.660 313.296,127.200 312.000 C 130.802 308.968,130.140 309.006,125.800 312.080 M157.489 315.245 C 155.699 316.804,155.692 316.846,157.355 316.041 C 158.321 315.574,159.332 314.833,159.603 314.396 C 160.389 313.123,159.527 313.470,157.489 315.245 M152.200 318.391 C 150.770 319.263,149.600 320.150,149.600 320.361 C 149.600 320.573,150.860 320.003,152.400 319.094 C 153.940 318.185,155.200 317.298,155.200 317.121 C 155.200 316.609,154.947 316.716,152.200 318.391 M240.000 318.595 C 240.000 319.010,247.325 323.967,250.200 325.498 C 253.612 327.314,251.991 325.732,247.800 323.154 C 245.490 321.734,242.790 320.042,241.800 319.394 C 240.810 318.746,240.000 318.386,240.000 318.595 M142.949 324.445 C 135.456 329.472,134.914 331.208,140.318 332.865 C 142.588 333.561,145.335 334.690,146.422 335.374 C 147.510 336.058,151.640 337.967,155.600 339.616 C 159.560 341.265,163.161 343.054,163.603 343.591 C 164.649 344.863,168.000 345.921,168.000 344.980 C 168.000 344.213,163.881 342.061,157.200 339.338 C 149.264 336.104,137.600 330.282,137.600 329.555 C 137.600 329.147,140.120 327.137,143.200 325.089 C 148.099 321.831,149.396 320.800,148.591 320.800 C 148.477 320.800,145.938 322.440,142.949 324.445 M243.542 335.812 C 241.973 336.886,241.555 339.233,242.843 339.727 C 244.225 340.258,247.200 337.901,247.200 336.276 C 247.200 335.125,244.960 334.841,243.542 335.812 " stroke="none" fill="#9ca5d1" fill-rule="evenodd"></path><path id="path9" d="M393.600 2.000 C 393.600 4.446,396.319 4.794,397.544 2.505 C 398.514 0.693,397.940 0.000,395.467 0.000 C 394.009 0.000,393.600 0.438,393.600 2.000 M234.905 188.203 C 232.323 190.071,227.463 193.771,224.105 196.424 L 218.000 201.248 217.789 226.590 C 217.582 251.396,217.612 251.950,219.211 252.806 C 220.110 253.287,220.633 254.022,220.375 254.440 C 220.117 254.858,220.287 255.200,220.753 255.200 C 221.219 255.200,221.600 254.901,221.600 254.535 C 221.600 254.170,222.514 253.381,223.630 252.784 C 225.358 251.859,225.471 251.591,224.388 250.985 C 223.582 250.534,222.696 250.622,221.968 251.226 C 218.628 253.999,218.400 252.489,218.400 227.585 C 218.400 199.560,217.805 201.564,228.388 193.941 C 240.138 185.478,240.585 185.237,242.217 186.516 C 243.467 187.496,243.494 187.465,242.502 186.200 C 240.932 184.198,240.156 184.403,234.905 188.203 M163.330 210.200 C 159.435 213.610,152.616 219.537,148.177 223.371 C 139.675 230.714,137.309 235.191,141.922 235.205 C 142.845 235.208,144.680 235.926,146.000 236.800 C 147.320 237.674,148.040 238.380,147.600 238.369 C 147.160 238.358,146.101 237.821,145.247 237.175 C 144.393 236.529,143.313 236.001,142.847 236.003 C 142.381 236.005,143.192 236.733,144.648 237.620 C 146.105 238.508,147.635 239.026,148.048 238.770 C 149.350 237.966,150.713 239.298,149.485 240.175 C 148.643 240.777,148.699 240.856,149.734 240.526 C 150.495 240.284,151.265 240.617,151.528 241.301 C 151.781 241.961,152.367 242.268,152.830 241.982 C 153.292 241.696,154.586 242.062,155.705 242.795 C 156.823 243.528,157.913 243.953,158.127 243.740 C 158.476 243.391,152.754 239.484,144.600 234.502 C 140.184 231.804,140.717 230.728,150.600 222.399 C 155.550 218.227,161.823 212.709,164.541 210.137 C 172.568 202.538,172.362 202.077,172.613 228.231 C 172.858 253.797,173.044 253.216,166.136 248.458 C 163.440 246.601,161.406 245.725,160.552 246.052 C 158.716 246.757,159.754 248.186,161.662 247.580 C 162.870 247.197,163.092 247.399,162.720 248.548 C 162.415 249.489,162.494 249.663,162.946 249.042 C 163.404 248.412,164.046 248.340,164.821 248.830 C 165.690 249.379,165.724 249.579,164.953 249.588 C 164.377 249.594,164.137 249.975,164.420 250.433 C 164.703 250.890,165.669 251.032,166.568 250.747 C 167.617 250.414,168.014 250.531,167.678 251.074 C 167.390 251.539,167.862 252.298,168.725 252.760 C 170.694 253.814,172.017 253.845,170.400 252.800 C 169.461 252.193,169.665 252.022,171.341 252.012 C 174.139 251.996,174.037 253.058,173.776 226.671 C 173.510 199.757,174.134 200.741,163.330 210.200 M211.804 225.799 C 212.184 259.040,212.455 262.073,212.628 235.000 C 212.723 220.150,212.530 208.000,212.200 207.999 C 211.870 207.999,211.692 216.009,211.804 225.799 M71.678 210.188 C 71.415 210.451,71.200 211.027,71.200 211.467 C 71.200 211.907,71.426 212.041,71.702 211.765 C 71.977 211.489,73.426 211.774,74.921 212.399 C 77.699 213.560,80.371 213.247,79.514 211.862 C 79.253 211.438,78.489 211.302,77.818 211.559 C 77.146 211.817,76.193 211.717,75.699 211.338 C 74.293 210.260,72.204 209.662,71.678 210.188 M313.893 211.061 C 312.504 211.789,312.011 212.401,312.642 212.613 C 314.216 213.139,311.247 215.138,308.800 215.199 C 307.020 215.243,306.958 215.341,308.236 216.084 C 309.370 216.744,310.510 216.383,313.647 214.370 C 315.991 212.866,318.249 211.983,319.151 212.219 C 320.172 212.486,320.549 212.278,320.286 211.592 C 319.676 210.001,316.428 209.731,313.893 211.061 M179.557 236.000 C 179.557 250.300,179.666 256.150,179.799 249.000 C 179.931 241.850,179.931 230.150,179.799 223.000 C 179.666 215.850,179.557 221.700,179.557 236.000 M277.014 212.461 C 277.840 213.721,276.982 215.751,275.338 216.424 C 274.147 216.912,274.176 217.052,275.600 217.702 C 277.029 218.355,276.998 218.394,275.307 218.067 C 273.429 217.704,266.700 221.367,267.597 222.264 C 267.833 222.500,268.453 222.267,268.973 221.747 C 269.494 221.226,270.468 220.800,271.138 220.800 C 271.978 220.800,271.793 221.194,270.541 222.071 C 269.543 222.771,268.189 223.137,267.533 222.885 C 266.453 222.470,258.615 226.912,250.000 232.821 C 248.240 234.028,243.236 237.289,238.880 240.068 C 234.524 242.847,231.371 245.257,231.873 245.424 C 232.375 245.592,233.357 245.157,234.055 244.459 C 235.662 242.852,238.424 241.357,238.902 241.835 C 239.103 242.036,238.082 242.992,236.634 243.960 C 235.185 244.928,234.376 245.603,234.834 245.460 C 236.555 244.924,260.800 229.176,260.800 228.594 C 260.800 228.261,258.686 229.430,256.103 231.194 C 251.578 234.282,248.426 235.686,251.637 233.182 C 256.369 229.493,262.012 226.563,262.663 227.457 C 263.100 228.056,263.179 227.870,262.880 226.948 C 262.495 225.757,262.719 225.594,264.126 226.040 C 265.489 226.473,265.740 226.319,265.346 225.292 C 264.971 224.315,265.338 224.000,266.850 224.000 C 267.950 224.000,271.265 222.380,274.217 220.400 C 277.168 218.420,279.093 216.800,278.494 216.800 C 277.662 216.800,277.619 216.541,278.314 215.704 C 279.011 214.864,278.893 214.246,277.812 213.066 C 277.035 212.218,276.676 211.946,277.014 212.461 M78.400 214.015 C 78.400 215.302,85.041 218.249,86.564 217.638 C 88.256 216.959,88.196 216.897,85.800 216.851 C 84.370 216.823,83.200 216.419,83.200 215.953 C 83.200 215.487,83.650 215.376,84.200 215.706 C 84.933 216.147,84.919 215.960,84.148 215.009 C 83.339 214.011,78.400 213.158,78.400 214.015 M71.212 218.953 C 71.206 220.797,71.560 222.528,72.000 222.800 C 73.036 223.441,73.036 218.404,72.000 216.800 C 71.431 215.920,71.221 216.493,71.212 218.953 M304.821 216.787 C 304.191 217.176,304.498 217.544,305.719 217.863 C 306.738 218.129,307.872 218.048,308.239 217.681 C 309.108 216.812,306.067 216.017,304.821 216.787 M85.813 218.879 C 86.508 219.574,123.182 243.176,131.200 248.088 C 138.864 252.784,141.747 255.115,141.128 256.116 C 140.896 256.492,128.101 256.800,112.696 256.800 C 84.564 256.800,80.175 257.242,82.748 259.815 C 83.045 260.111,83.562 259.909,83.898 259.365 C 84.362 258.615,91.460 258.330,113.255 258.188 L 142.000 258.000 141.968 255.800 C 141.931 253.215,142.597 253.077,145.477 255.069 C 148.396 257.088,149.600 257.755,149.600 257.354 C 149.600 256.482,143.038 252.800,141.484 252.800 C 140.521 252.800,139.970 252.563,140.260 252.274 C 140.928 251.605,139.299 249.596,138.102 249.612 C 137.606 249.619,137.740 249.973,138.400 250.400 C 139.426 251.063,139.396 251.177,138.200 251.188 C 137.430 251.194,136.800 250.840,136.800 250.400 C 136.800 249.960,136.239 249.600,135.553 249.600 C 134.867 249.600,134.528 249.240,134.800 248.800 C 135.072 248.360,134.564 248.000,133.672 248.000 C 132.596 248.000,132.198 247.616,132.488 246.858 C 132.803 246.039,132.482 245.833,131.353 246.128 C 130.488 246.354,129.541 246.152,129.249 245.679 C 128.920 245.147,129.192 245.001,129.958 245.295 C 132.457 246.253,131.097 244.874,127.150 242.445 C 124.922 241.074,122.672 240.006,122.150 240.071 C 120.293 240.303,119.200 239.989,119.200 239.225 C 119.200 238.799,119.830 238.653,120.600 238.901 C 121.709 239.257,121.765 239.184,120.873 238.549 C 120.252 238.109,119.203 237.956,118.541 238.210 C 117.792 238.497,117.543 238.339,117.882 237.791 C 118.181 237.307,118.005 236.650,117.489 236.332 C 116.871 235.949,116.768 236.101,117.188 236.780 C 117.611 237.465,117.452 237.684,116.711 237.437 C 116.100 237.233,115.600 236.654,115.600 236.149 C 115.600 234.817,112.322 232.727,111.018 233.227 C 110.407 233.462,109.103 232.956,108.120 232.104 C 106.936 231.077,106.668 230.444,107.327 230.224 C 107.972 230.009,107.829 229.706,106.918 229.356 C 105.992 229.001,105.704 229.121,106.070 229.713 C 106.406 230.256,106.186 230.449,105.511 230.204 C 104.900 229.982,104.465 229.470,104.545 229.066 C 104.624 228.662,104.010 228.281,103.179 228.218 C 101.698 228.107,94.992 224.000,96.291 224.000 C 96.655 224.000,98.019 224.759,99.323 225.687 C 100.626 226.615,101.870 227.196,102.088 226.979 C 102.624 226.443,96.591 222.748,95.671 223.048 C 94.738 223.353,88.000 219.799,88.000 219.001 C 88.000 218.671,87.400 218.400,86.667 218.400 C 85.933 218.400,85.549 218.616,85.813 218.879 M298.111 221.040 C 295.972 222.415,294.648 223.683,295.170 223.857 C 295.691 224.030,294.850 225.034,293.301 226.086 C 289.897 228.399,288.697 228.605,291.311 226.427 C 293.797 224.356,292.447 224.332,289.818 226.400 C 288.632 227.333,288.246 228.007,288.892 228.018 C 289.543 228.028,289.175 228.681,288.000 229.600 C 285.541 231.524,284.216 231.674,285.702 229.860 C 286.658 228.694,286.515 228.706,284.600 229.952 C 282.071 231.598,281.792 232.141,283.800 231.510 C 284.995 231.134,284.973 231.254,283.647 232.335 C 282.439 233.319,281.953 233.378,281.459 232.600 C 281.011 231.894,280.821 232.025,280.812 233.047 C 280.806 233.843,280.431 234.266,279.979 233.987 C 278.900 233.320,272.076 237.653,272.474 238.751 C 272.808 239.674,265.454 244.803,263.809 244.795 C 263.254 244.792,263.880 244.074,265.200 243.200 C 266.520 242.326,267.296 241.608,266.923 241.605 C 265.507 241.594,261.605 244.961,262.102 245.765 C 262.402 246.250,262.151 246.440,261.511 246.214 C 259.896 245.641,255.504 247.999,256.751 248.769 C 257.483 249.222,257.411 249.501,256.467 249.864 C 255.770 250.131,255.200 249.980,255.200 249.528 C 255.200 249.076,254.802 248.952,254.315 249.253 C 253.696 249.635,253.756 250.032,254.515 250.569 C 255.303 251.128,255.107 251.231,253.801 250.945 C 251.764 250.498,250.590 251.595,252.371 252.278 C 254.356 253.040,261.413 248.667,259.533 247.841 C 258.261 247.282,258.325 247.230,259.907 247.537 C 261.312 247.809,264.470 246.173,271.907 241.320 C 277.458 237.698,285.917 232.250,290.704 229.214 C 297.895 224.653,299.147 223.579,297.904 223.031 C 296.679 222.490,296.752 222.435,298.293 222.733 C 300.255 223.112,307.376 219.125,305.722 218.574 C 305.246 218.415,304.056 219.031,303.077 219.943 C 302.099 220.854,300.736 221.598,300.049 221.595 C 299.299 221.592,299.759 220.954,301.200 220.000 C 302.520 219.126,303.240 218.439,302.800 218.475 C 302.360 218.510,300.250 219.664,298.111 221.040 M316.513 233.768 C 316.243 234.776,316.017 237.022,316.011 238.760 C 315.996 243.171,317.420 241.370,317.698 236.626 C 317.941 232.477,317.283 230.891,316.513 233.768 M74.832 237.600 C 75.074 239.580,75.469 243.091,75.710 245.401 C 75.951 247.712,76.475 249.401,76.874 249.154 C 77.273 248.907,77.600 250.167,77.600 251.953 C 77.600 253.790,77.984 255.200,78.484 255.200 C 79.521 255.200,79.168 251.841,77.242 243.355 C 75.505 235.704,74.228 232.655,74.832 237.600 M250.400 234.735 C 250.400 235.222,245.135 238.400,244.328 238.400 C 243.952 238.400,244.895 237.518,246.423 236.439 C 249.068 234.572,250.400 234.001,250.400 234.735 M280.000 234.721 C 280.000 235.127,274.484 238.400,273.799 238.400 C 273.519 238.400,274.509 237.500,276.000 236.400 C 278.498 234.557,280.000 233.927,280.000 234.721 M125.988 242.499 C 127.572 243.434,128.701 244.366,128.496 244.570 C 128.292 244.775,126.753 244.010,125.077 242.871 C 121.399 240.372,121.981 240.135,125.988 242.499 M155.475 244.711 C 157.674 246.160,161.239 246.157,160.342 244.706 C 160.100 244.315,159.063 244.205,158.038 244.462 C 157.013 244.719,155.934 244.540,155.640 244.065 C 155.346 243.589,154.677 243.202,154.153 243.205 C 153.629 243.208,154.224 243.886,155.475 244.711 M226.925 247.706 C 225.234 248.812,224.001 249.867,224.184 250.050 C 224.662 250.529,228.786 248.516,228.794 247.800 C 228.797 247.470,229.430 247.206,230.200 247.212 C 231.396 247.223,231.426 247.337,230.400 248.000 C 229.740 248.427,229.606 248.781,230.102 248.788 C 231.811 248.811,232.981 246.641,231.555 246.093 C 230.012 245.501,230.615 245.291,226.925 247.706 M312.800 251.422 C 312.800 252.424,312.240 254.044,311.555 255.022 L 310.309 256.800 280.755 256.800 C 250.514 256.800,249.249 256.671,252.053 253.867 C 253.446 252.474,250.101 252.048,248.337 253.393 C 246.837 254.537,246.839 254.554,248.432 254.082 C 249.800 253.677,250.058 253.955,250.032 255.800 L 250.000 258.000 280.199 258.152 C 296.808 258.236,310.848 258.563,311.399 258.880 C 311.950 259.197,312.141 259.169,311.824 258.819 C 311.507 258.468,311.905 257.240,312.710 256.090 C 314.661 253.301,315.334 249.600,313.889 249.600 C 313.289 249.600,312.800 250.418,312.800 251.422 M171.293 255.426 C 171.242 256.210,170.390 257.177,169.400 257.575 C 168.395 257.979,168.130 258.316,168.800 258.337 C 170.807 258.401,172.179 257.093,171.772 255.504 C 171.423 254.146,171.377 254.139,171.293 255.426 M220.000 256.763 C 220.000 257.550,223.099 258.768,223.664 258.203 C 223.852 258.014,223.105 257.449,222.003 256.947 C 220.902 256.445,220.000 256.362,220.000 256.763 M154.629 257.392 C 157.175 257.551,161.135 257.550,163.429 257.389 C 165.723 257.228,163.640 257.097,158.800 257.099 C 153.960 257.101,152.083 257.233,154.629 257.392 M229.431 257.393 C 232.199 257.550,236.519 257.549,239.031 257.390 C 241.544 257.232,239.280 257.104,234.000 257.105 C 228.720 257.107,226.664 257.236,229.431 257.393 M83.200 263.400 C 83.200 264.176,176.903 264.164,178.124 263.388 C 178.632 263.064,157.482 262.800,131.124 262.800 C 104.766 262.800,83.200 263.070,83.200 263.400 M212.800 263.411 C 212.800 263.748,233.950 263.983,259.800 263.935 C 285.650 263.887,306.423 263.697,305.962 263.511 C 304.416 262.890,212.800 262.792,212.800 263.411 M124.655 296.599 C 134.915 296.726,151.475 296.726,161.455 296.599 C 171.435 296.472,163.040 296.369,142.800 296.369 C 122.560 296.369,114.395 296.473,124.655 296.599 M212.399 297.000 C 211.774 298.783,211.581 347.861,212.200 347.477 C 212.530 347.273,212.800 335.817,212.800 322.019 C 212.800 302.699,213.030 296.841,213.800 296.530 C 214.583 296.214,214.578 296.113,213.775 296.063 C 213.211 296.028,212.592 296.450,212.399 297.000 M231.000 296.599 C 239.910 296.728,254.490 296.728,263.400 296.599 C 272.310 296.470,265.020 296.365,247.200 296.365 C 229.380 296.365,222.090 296.470,231.000 296.599 M179.553 320.400 C 179.553 333.160,179.664 338.268,179.799 331.751 C 179.933 325.234,179.933 314.794,179.798 308.551 C 179.663 302.308,179.553 307.640,179.553 320.400 M121.620 301.399 C 106.295 301.662,105.665 301.853,107.230 305.755 C 108.909 309.943,112.693 314.011,113.340 312.324 C 113.698 311.391,113.071 310.323,111.322 308.885 C 105.013 303.699,107.636 302.400,124.418 302.400 C 140.118 302.400,142.077 303.680,133.254 308.174 C 127.840 310.931,124.553 313.740,125.758 314.579 C 126.450 315.061,126.195 315.135,125.000 314.798 C 123.702 314.434,123.200 314.631,123.200 315.504 C 123.200 316.498,123.623 316.569,125.551 315.897 C 126.845 315.446,127.738 314.647,127.536 314.121 C 127.154 313.125,131.506 310.086,133.600 309.885 C 134.260 309.822,135.160 309.726,135.600 309.673 C 136.040 309.619,135.860 309.187,135.200 308.712 C 134.198 307.992,134.239 307.927,135.449 308.318 C 136.362 308.614,138.578 307.682,141.449 305.794 L 146.000 302.800 157.200 302.800 C 165.733 302.800,168.352 303.038,168.200 303.800 C 168.090 304.350,168.386 304.800,168.859 304.800 C 169.331 304.800,169.595 304.170,169.446 303.400 C 168.978 300.990,146.940 301.330,143.477 303.800 C 140.554 305.884,139.051 306.120,139.715 304.390 C 140.311 302.835,138.589 300.747,136.902 300.980 C 136.186 301.079,129.309 301.268,121.620 301.399 M253.800 301.311 C 253.250 301.543,252.800 302.827,252.800 304.165 C 252.800 306.235,252.622 306.448,251.600 305.600 C 250.940 305.052,250.400 304.805,250.400 305.052 C 250.400 305.827,263.998 314.400,265.228 314.400 C 267.362 314.400,266.448 312.910,262.756 310.370 C 260.752 308.991,258.573 308.069,257.914 308.322 C 257.256 308.575,256.926 308.444,257.181 308.031 C 257.436 307.618,256.915 306.890,256.022 306.412 C 255.130 305.934,254.400 304.798,254.400 303.886 C 254.400 302.256,254.663 302.232,269.600 302.515 C 277.960 302.673,284.800 302.532,284.800 302.201 C 284.800 301.870,278.770 301.595,271.400 301.589 C 264.030 301.583,257.280 301.423,256.400 301.234 C 255.520 301.044,254.350 301.079,253.800 301.311 M223.722 302.200 C 223.517 302.530,228.141 302.683,233.997 302.539 C 242.572 302.330,245.128 302.528,247.123 303.560 C 248.485 304.265,249.600 304.661,249.600 304.441 C 249.600 302.132,225.082 300.009,223.722 302.200 M218.200 305.264 C 217.870 305.596,217.600 315.047,217.600 326.267 C 217.600 337.487,217.838 346.429,218.128 346.138 C 218.419 345.848,218.573 336.787,218.470 326.002 C 218.248 302.626,217.730 303.495,227.836 310.290 C 233.009 313.768,235.523 315.002,236.898 314.735 C 238.435 314.438,238.512 314.494,237.300 315.029 C 236.064 315.574,237.306 316.633,244.361 321.045 C 252.860 326.362,254.400 327.071,254.400 325.671 C 254.400 324.366,249.588 320.855,248.415 321.305 C 247.788 321.546,246.457 321.171,245.459 320.471 C 244.461 319.772,244.105 319.200,244.669 319.200 C 245.233 319.200,245.493 318.874,245.246 318.475 C 245.000 318.076,244.092 317.935,243.228 318.161 C 242.361 318.388,241.081 317.996,240.372 317.286 C 239.432 316.346,239.368 316.000,240.134 316.000 C 240.711 316.000,238.768 314.380,235.817 312.400 C 232.865 310.420,229.698 308.800,228.778 308.800 C 227.858 308.800,227.328 308.440,227.600 308.000 C 227.872 307.560,227.563 307.200,226.914 307.200 C 226.265 307.200,225.613 306.857,225.467 306.438 C 225.124 305.459,218.992 304.469,218.200 305.264 M166.183 306.473 C 165.404 306.927,165.004 307.683,165.295 308.153 C 165.602 308.651,165.359 308.843,164.711 308.614 C 163.633 308.231,159.200 310.029,159.200 310.849 C 159.200 311.073,159.951 310.854,160.869 310.363 C 161.786 309.872,162.733 309.666,162.972 309.905 C 163.211 310.144,162.460 310.771,161.303 311.298 C 160.147 311.826,159.200 312.598,159.200 313.015 C 159.200 313.432,158.322 313.553,157.249 313.284 C 155.345 312.806,153.526 313.975,155.270 314.557 C 155.753 314.718,155.126 315.379,153.875 316.025 C 152.624 316.671,151.140 317.635,150.577 318.166 C 150.014 318.697,148.934 318.933,148.177 318.691 C 146.989 318.310,146.965 318.379,148.000 319.194 C 149.005 319.985,148.917 320.077,147.460 319.760 C 146.214 319.489,145.840 319.695,146.145 320.489 C 146.443 321.266,145.993 321.548,144.636 321.436 C 142.718 321.277,138.122 323.915,136.200 326.277 C 135.006 327.744,134.866 331.200,136.000 331.200 C 136.440 331.200,136.800 330.653,136.800 329.984 C 136.800 329.314,138.435 327.614,140.434 326.206 C 143.532 324.022,143.856 323.551,142.634 323.006 C 141.557 322.526,141.680 322.461,143.127 322.742 C 145.146 323.135,146.485 322.374,162.309 311.842 C 173.577 304.343,172.898 303.387,172.756 326.562 C 172.691 337.223,172.944 346.048,173.319 346.173 C 173.841 346.346,174.000 326.148,173.627 307.000 C 173.596 305.387,168.651 305.037,166.183 306.473 M233.428 311.600 C 235.337 312.897,235.885 313.600,234.986 313.600 C 234.224 313.600,233.600 313.323,233.600 312.985 C 233.600 312.647,232.610 311.757,231.400 311.007 C 230.190 310.256,229.489 309.633,229.842 309.621 C 230.196 309.610,231.809 310.500,233.428 311.600 M262.546 311.600 C 263.853 312.700,264.696 313.600,264.419 313.600 C 264.142 313.600,262.591 312.700,260.972 311.600 C 259.353 310.500,258.510 309.600,259.099 309.600 C 259.687 309.600,261.239 310.500,262.546 311.600 M252.403 324.004 C 252.673 324.442,252.603 324.789,252.247 324.775 C 251.355 324.739,248.800 322.745,248.800 322.084 C 248.800 321.386,251.759 322.963,252.403 324.004 M141.600 323.907 C 141.600 324.295,140.970 324.836,140.200 325.107 C 139.430 325.379,138.260 325.812,137.600 326.070 C 136.940 326.328,137.480 325.790,138.800 324.875 C 141.544 322.972,141.600 322.953,141.600 323.907 M137.125 332.679 C 137.378 333.088,138.521 333.658,139.664 333.945 C 140.808 334.232,146.607 336.816,152.551 339.687 C 158.495 342.559,163.569 344.698,163.826 344.441 C 164.613 343.654,163.086 342.749,155.681 339.614 C 151.766 337.957,146.906 335.777,144.881 334.770 C 140.721 332.702,136.423 331.543,137.125 332.679 M189.954 349.525 C 190.200 349.924,191.121 350.062,192.001 349.832 C 194.202 349.256,194.004 348.800,191.553 348.800 C 190.427 348.800,189.707 349.126,189.954 349.525 " stroke="none" fill="#c7cce5" fill-rule="evenodd"></path></g></svg>